<svg xmlns="http://www.w3.org/2000/svg" width="25" height="24" viewBox="0 0 25 24" fill="none">
  <path d="M22.2693 18.7033C21.9031 19.5418 21.4695 20.3136 20.9672 21.0232C20.2825 21.9906 19.7219 22.6602 19.2899 23.032C18.6202 23.6424 17.9026 23.955 17.1342 23.9728C16.5826 23.9728 15.9173 23.8172 15.1429 23.5017C14.366 23.1876 13.652 23.032 12.9992 23.032C12.3145 23.032 11.5802 23.1876 10.7947 23.5017C10.0081 23.8172 9.37439 23.9816 8.88987 23.9979C8.15302 24.0291 7.41855 23.7076 6.68543 23.032C6.21751 22.6276 5.63224 21.9343 4.93112 20.9521C4.17886 19.9033 3.5604 18.687 3.07589 17.3004C2.557 15.8026 2.29688 14.3523 2.29688 12.9482C2.29688 11.3398 2.64759 9.95259 3.35006 8.79011C3.90215 7.85636 4.63661 7.11979 5.55585 6.57906C6.47509 6.03834 7.46833 5.76279 8.53797 5.74516C9.12324 5.74516 9.89074 5.92456 10.8445 6.27715C11.7956 6.63091 12.4063 6.81032 12.674 6.81032C12.8742 6.81032 13.5526 6.60054 14.7027 6.18233C15.7902 5.79449 16.7081 5.63391 17.4601 5.69716C19.4977 5.86012 21.0285 6.6561 22.0466 8.09013C20.2242 9.18432 19.3228 10.7169 19.3407 12.6829C19.3572 14.2142 19.9178 15.4886 21.0196 16.5004C21.5189 16.97 22.0765 17.333 22.6969 17.5907C22.5623 17.9774 22.4203 18.3477 22.2693 18.7033ZM17.5961 0.480137C17.5961 1.68041 17.1536 2.8011 16.2716 3.8384C15.2072 5.07155 13.9198 5.78412 12.5236 5.67168C12.5058 5.52769 12.4955 5.37614 12.4955 5.21688C12.4955 4.06462 13.0017 2.83147 13.9006 1.82321C14.3494 1.3127 14.9202 0.888228 15.6123 0.549615C16.303 0.216055 16.9563 0.031589 17.5707 0C17.5887 0.160458 17.5961 0.320926 17.5961 0.480121V0.480137Z" fill="#33384B"/>
</svg>