<svg width="24" height="24" viewBox="0 0 24 24" fill="none" xmlns="http://www.w3.org/2000/svg">
<g id="Group">
<path id="Vector" opacity="0.3" fill-rule="evenodd" clip-rule="evenodd" d="M6 2H18C18.5523 2 19 2.44772 19 3V12C19 12.5523 18.5523 13 18 13H6C5.44772 13 5 12.5523 5 12V3C5 2.44772 5.44772 2 6 2ZM7.5 5C7.22386 5 7 5.22386 7 5.5C7 5.77614 7.22386 6 7.5 6H13.5C13.7761 6 14 5.77614 14 5.5C14 5.22386 13.7761 5 13.5 5H7.5ZM7.5 7C7.22386 7 7 7.22386 7 7.5C7 7.77614 7.22386 8 7.5 8H10.5C10.7761 8 11 7.77614 11 7.5C11 7.22386 10.7761 7 10.5 7H7.5Z" fill="#191919"/>
<path id="Vector_2" fill-rule="evenodd" clip-rule="evenodd" d="M3.79275 6.57224L12 12.4997L20.2073 6.57224C20.4311 6.41056 20.7437 6.46097 20.9053 6.68483C20.9669 6.77004 21 6.87247 21 6.97758V16.9997C21 18.1043 20.1046 18.9997 19 18.9997H5C3.89543 18.9997 3 18.1043 3 16.9997V6.97758C3 6.70143 3.22386 6.47758 3.5 6.47758C3.60511 6.47758 3.70754 6.5107 3.79275 6.57224Z" fill="#191919"/>
</g>
</svg>
