<svg width="37" height="37" viewBox="0 0 37 37" fill="currentColor" xmlns="http://www.w3.org/2000/svg">
<path fill-rule="evenodd" clip-rule="evenodd" d="M20.5 32V27.5C20.5 26.6716 19.8284 26 19 26H17.5C16.6716 26 16 26.6716 16 27.5V32H7.75V6.5C7.75 4.84315 9.09315 3.5 10.75 3.5H25.75C27.4069 3.5 28.75 4.84315 28.75 6.5V32H20.5ZM13.75 6.5C12.9216 6.5 12.25 7.17157 12.25 8V9.5C12.25 10.3284 12.9216 11 13.75 11H15.25C16.0784 11 16.75 10.3284 16.75 9.5V8C16.75 7.17157 16.0784 6.5 15.25 6.5H13.75ZM21.25 6.5C20.4216 6.5 19.75 7.17157 19.75 8V9.5C19.75 10.3284 20.4216 11 21.25 11H22.75C23.5784 11 24.25 10.3284 24.25 9.5V8C24.25 7.17157 23.5784 6.5 22.75 6.5H21.25ZM13.75 12.5C12.9216 12.5 12.25 13.1716 12.25 14V15.5C12.25 16.3284 12.9216 17 13.75 17H15.25C16.0784 17 16.75 16.3284 16.75 15.5V14C16.75 13.1716 16.0784 12.5 15.25 12.5H13.75ZM13.75 18.5C12.9216 18.5 12.25 19.1716 12.25 20V21.5C12.25 22.3284 12.9216 23 13.75 23H15.25C16.0784 23 16.75 22.3284 16.75 21.5V20C16.75 19.1716 16.0784 18.5 15.25 18.5H13.75ZM21.25 18.5C20.4216 18.5 19.75 19.1716 19.75 20V21.5C19.75 22.3284 20.4216 23 21.25 23H22.75C23.5784 23 24.25 22.3284 24.25 21.5V20C24.25 19.1716 23.5784 18.5 22.75 18.5H21.25Z" fill="currentColor"/>
<path d="M22.75 12.5H21.25C20.4216 12.5 19.75 13.1716 19.75 14V15.5C19.75 16.3284 20.4216 17 21.25 17H22.75C23.5784 17 24.25 16.3284 24.25 15.5V14C24.25 13.1716 23.5784 12.5 22.75 12.5Z" fill="currentColor"/>
<path opacity="0.3" fill-rule="evenodd" clip-rule="evenodd" d="M6.25 32H30.25C31.0784 32 31.75 32.6716 31.75 33.5V34.1C31.75 34.5971 31.3471 35 30.85 35H5.65C5.15294 35 4.75 34.5971 4.75 34.1V33.5C4.75 32.6716 5.42157 32 6.25 32Z" fill="currentColor"/>
</svg>
