<svg width="20" height="20" viewBox="0 0 20 20" fill="none" xmlns="http://www.w3.org/2000/svg">
<g id="Group">
<path id="Vector" d="M16.6675 4.16653H2.50081C2.04058 4.16653 1.66748 4.53963 1.66748 4.99987V6.66653C1.66748 7.12677 2.04058 7.49987 2.50081 7.49987H16.6675C17.1277 7.49987 17.5008 7.12677 17.5008 6.66653V4.99987C17.5008 4.53963 17.1277 4.16653 16.6675 4.16653Z" fill="#FFD817"/>
<path id="Vector_2" opacity="0.3" d="M16.6675 9.16653H2.50081C2.04058 9.16653 1.66748 9.53963 1.66748 9.99987V16.6665C1.66748 17.1268 2.04058 17.4999 2.50081 17.4999H16.6675C17.1277 17.4999 17.5008 17.1268 17.5008 16.6665V9.99987C17.5008 9.53963 17.1277 9.16653 16.6675 9.16653Z" fill="#FFD817"/>
</g>
</svg>
