<svg width="61" height="61" viewBox="0 0 61 61" fill="none" xmlns="http://www.w3.org/2000/svg">
<g id="check">
<g id="check-circle.1">
<path id="Shape" fill-rule="evenodd" clip-rule="evenodd" d="M30.5 61C47.3447 61 61 47.3447 61 30.5C61 13.6553 47.3447 0 30.5 0C13.6553 0 0 13.6553 0 30.5C0 47.3447 13.6553 61 30.5 61ZM49.6223 23.9088L26.9697 46.4468C26.2004 47.2121 24.9532 47.2121 24.1839 46.4467L11.3803 33.7078C10.6111 32.9425 10.6111 31.7015 11.3803 30.9362L14.1659 28.1647C14.9352 27.3994 16.1825 27.3994 16.9517 28.1647L25.5768 36.7461L44.0509 18.3657C44.8202 17.6002 46.0674 17.6002 46.8366 18.3657L49.6223 21.1372C50.3915 21.9025 50.3915 23.1435 49.6223 23.9088Z" fill="#FEF387"/>
</g>
</g>
</svg>
