<svg width="20" height="20" viewBox="0 0 20 20" fill="none" xmlns="http://www.w3.org/2000/svg">
<g id="Chevron">
<path id="Vector" d="M12.947 9.40845L8.23035 4.70011C8.15288 4.622 8.06071 4.56001 7.95916 4.5177C7.85761 4.4754 7.74869 4.45361 7.63868 4.45361C7.52867 4.45361 7.41975 4.4754 7.3182 4.5177C7.21665 4.56001 7.12448 4.622 7.04701 4.70011C6.89181 4.85625 6.80469 5.06746 6.80469 5.28761C6.80469 5.50777 6.89181 5.71898 7.04701 5.87511L11.172 10.0418L7.04701 14.1668C6.89181 14.3229 6.80469 14.5341 6.80469 14.7543C6.80469 14.9744 6.89181 15.1856 7.04701 15.3418C7.12419 15.4205 7.21623 15.4832 7.31779 15.5261C7.41936 15.569 7.52843 15.5913 7.63868 15.5918C7.74894 15.5913 7.85801 15.569 7.95957 15.5261C8.06113 15.4832 8.15317 15.4205 8.23035 15.3418L12.947 10.6334C13.0316 10.5554 13.0991 10.4607 13.1453 10.3553C13.1915 10.2499 13.2153 10.136 13.2153 10.0209C13.2153 9.90586 13.1915 9.79202 13.1453 9.68661C13.0991 9.58119 13.0316 9.48648 12.947 9.40845Z" fill="#121212"/>
</g>
</svg>
