<svg width="20" height="20" viewBox="0 0 20 20" fill="none" xmlns="http://www.w3.org/2000/svg">
<g id="Group">
<path id="Vector" opacity="0.3" fill-rule="evenodd" clip-rule="evenodd" d="M10 18.3331C5.85786 18.3331 2.5 14.9752 2.5 10.8331C2.5 6.69093 5.85786 3.33307 10 3.33307C14.1421 3.33307 17.5 6.69093 17.5 10.8331C17.5 14.9752 14.1421 18.3331 10 18.3331Z" fill="#FFD817"/>
<path id="Vector_2" fill-rule="evenodd" clip-rule="evenodd" d="M9.96924 6.25H10.0396C10.2537 6.25 10.4329 6.41221 10.4542 6.62521L10.8334 10.4167L13.5401 11.9634C13.6699 12.0376 13.7501 12.1756 13.7501 12.3251V12.5C13.7501 12.6758 13.6076 12.8182 13.4318 12.8182C13.4035 12.8182 13.3754 12.8145 13.3481 12.807L9.49894 11.7573C9.30613 11.7047 9.17781 11.5226 9.19313 11.3233L9.5538 6.63471C9.5705 6.41763 9.75151 6.25 9.96924 6.25Z" fill="#FFD817"/>
</g>
</svg>
