<svg xmlns="http://www.w3.org/2000/svg" width="20" height="20" viewBox="0 0 20 20" fill="none">
  <path fill-rule="evenodd" clip-rule="evenodd" d="M4.47492 1.76385C4.64489 1.74996 4.84659 1.74998 5.05853 1.75H12.5535L16.9999 6.41875V16.1915C17 16.4034 17 16.6051 16.9861 16.7751C16.971 16.9604 16.9356 17.173 16.8274 17.3855C16.6756 17.6834 16.4334 17.9256 16.1354 18.0774C15.9229 18.1857 15.7104 18.221 15.525 18.2362C15.3551 18.25 15.1533 18.25 14.9414 18.25H5.05848C4.84656 18.25 4.64488 18.25 4.47492 18.2362C4.28958 18.221 4.07699 18.1857 3.86451 18.0774C3.56659 17.9256 3.32437 17.6834 3.17257 17.3855C3.06431 17.173 3.02899 16.9604 3.01385 16.7751C2.99996 16.6051 2.99998 16.4034 3 16.1915V3.80854C2.99998 3.5966 2.99996 3.3949 3.01385 3.22493C3.02899 3.03959 3.06431 2.827 3.17257 2.61452C3.32437 2.31659 3.56659 2.07437 3.86451 1.92257C4.07699 1.81431 4.28958 1.77899 4.47492 1.76385ZM4.49998 3.33317C4.49998 3.28715 4.53729 3.24984 4.58332 3.24984H10.9166V7.41683H15.4999V16.6665C15.4999 16.7125 15.4626 16.7498 15.4166 16.7498H4.58332C4.53729 16.7498 4.49998 16.7125 4.49998 16.6665V3.33317ZM12.4166 5.91683V3.78109L14.4507 5.91683H12.4166Z" fill="current"/>
</svg>