<svg width="27" height="26" viewBox="0 0 27 26" fill="none" xmlns="http://www.w3.org/2000/svg">
<g id="Group">
<path id="Vector" fill-rule="evenodd" clip-rule="evenodd" d="M14.4131 17.3333H12.5855L12.4 18.0259C11.6959 20.6537 8.99481 22.2132 6.36703 21.5091C3.73924 20.8049 2.1798 18.1039 2.88391 15.4761L4.74692 8.52328C5.45103 5.89549 8.15207 4.33605 10.7799 5.04016C11.92 5.34566 12.859 6.02709 13.4993 6.91535C14.1396 6.02709 15.0786 5.34566 16.2188 5.04016C18.8466 4.33605 21.5476 5.89549 22.2517 8.52328L24.1147 15.4761C24.8188 18.1039 23.2594 20.8049 20.6316 21.5091C18.0038 22.2132 15.3028 20.6537 14.5987 18.0259L14.4131 17.3333ZM19.4104 19.614C21.0427 19.614 22.3659 18.241 22.3659 16.5473C22.3659 14.8536 21.0427 13.4806 19.4104 13.4806C17.7781 13.4806 16.4548 14.8536 16.4548 16.5473C16.4548 18.241 17.7781 19.614 19.4104 19.614ZM7.58827 19.614C9.22056 19.614 10.5438 18.241 10.5438 16.5473C10.5438 14.8536 9.22056 13.4806 7.58827 13.4806C5.95598 13.4806 4.63275 14.8536 4.63275 16.5473C4.63275 18.241 5.95598 19.614 7.58827 19.614Z" fill="#9397A1"/>
</g>
</svg>
