<svg width="20" height="20" viewBox="0 0 20 20" fill="none" xmlns="http://www.w3.org/2000/svg">
<g id="Group">
<path id="Vector" opacity="0.3" d="M10.0008 18.3332C14.6032 18.3332 18.3341 14.6022 18.3341 9.99984C18.3341 5.39746 14.6032 1.6665 10.0008 1.6665C5.39844 1.6665 1.66748 5.39746 1.66748 9.99984C1.66748 14.6022 5.39844 18.3332 10.0008 18.3332Z" fill="#FFD817"/>
<path id="Vector_2" opacity="0.3" fill-rule="evenodd" clip-rule="evenodd" d="M9.99919 9.16683C9.07871 9.16683 8.33252 8.42064 8.33252 7.50016C8.33252 6.57969 9.07871 5.8335 9.99919 5.8335C10.9197 5.8335 11.6659 6.57969 11.6659 7.50016C11.6659 8.42064 10.9197 9.16683 9.99919 9.16683ZM5.83282 13.7497C6.01227 11.264 7.80563 10.0002 9.99147 10.0002C12.2081 10.0002 14.0292 11.1945 14.1649 13.7502C14.1703 13.852 14.1649 14.1668 13.8171 14.1668H6.16933C6.05322 14.1668 5.82305 13.8852 5.83282 13.7497Z" fill="#FFD817"/>
</g>
</svg>