<svg width="100" height="100" viewBox="0 0 100 100" fill="none" xmlns="http://www.w3.org/2000/svg">
<g id="Property 1=Default">
<g clip-path="url(#clip0_4704_65355)">
<rect width="100" height="100" rx="16" fill="#FEF387"/>
<g id="Union">
<path fill-rule="evenodd" clip-rule="evenodd" d="M22.6375 48.3505C22.0552 48.5323 21.4355 48.6303 20.7929 48.6303C17.3969 48.6303 14.644 45.8942 14.644 42.519C14.644 39.1438 17.3969 36.4077 20.7929 36.4077C24.1888 36.4077 26.9417 39.1438 26.9417 42.519C26.9417 42.5833 26.9407 42.6473 26.9387 42.7111C26.9407 42.7487 26.9417 42.7865 26.9417 42.8246V52.2971H29.4013V44.0468C29.4013 42.8655 30.3648 41.9079 31.5534 41.9079C32.7419 41.9079 33.7055 42.8655 33.7055 44.0468V52.2971H43.5437V48.3505C42.9613 48.5323 42.3417 48.6303 41.699 48.6303C38.3031 48.6303 35.5501 45.8942 35.5501 42.519C35.5501 39.1438 38.3031 36.4077 41.699 36.4077C45.0949 36.4077 47.8479 39.1438 47.8479 42.519C47.8479 42.5833 47.8469 42.6473 47.8449 42.7111C47.8469 42.7487 47.8479 42.7865 47.8479 42.8246V52.2971H58.3009V48.3505C57.7186 48.5323 57.099 48.6303 56.4563 48.6303C53.0604 48.6303 50.3074 45.8942 50.3074 42.519C50.3074 39.1438 53.0604 36.4077 56.4563 36.4077C59.8522 36.4077 62.6051 39.1438 62.6051 42.519C62.6051 42.5833 62.6041 42.6473 62.6022 42.7111C62.6041 42.7487 62.6051 42.7865 62.6051 42.8246V52.2971H65.0647V38.5467C65.0647 37.3654 66.0282 36.4077 67.2168 36.4077C68.4054 36.4077 69.3689 37.3654 69.3689 38.5467V52.2971H75.7471C74.9606 51.9309 74.2237 51.425 73.5741 50.7794C70.5724 47.7961 70.5724 42.9593 73.5741 39.976C76.5757 36.9927 81.4422 36.9927 84.4438 39.976C87.4454 42.9593 87.4454 47.7961 84.4438 50.7794C83.7942 51.425 83.0572 51.9309 82.2707 52.2971H98.576C99.7646 52.2971 100.728 53.2547 100.728 54.4361C100.728 55.6174 99.7646 56.575 98.576 56.575H62.6051V61.1585C62.6051 61.1918 62.6044 61.225 62.6029 61.258C62.6044 61.3265 62.6051 61.3952 62.6051 61.4641C62.6051 66.5268 58.4757 70.631 53.3818 70.631C50.3647 70.631 47.686 69.1912 46.0032 66.9651C44.3205 69.1912 41.6417 70.631 38.6246 70.631C33.5307 70.631 29.4013 66.5268 29.4013 61.4641C29.4013 59.6666 29.9218 57.99 30.8211 56.575H26.9417V61.1585C26.9417 61.1918 26.941 61.225 26.9394 61.258C26.941 61.3265 26.9417 61.3952 26.9417 61.4641C26.9417 66.5268 22.8123 70.631 17.7184 70.631C12.6245 70.631 8.49512 66.5268 8.49512 61.4641C8.49512 56.4013 12.6245 52.2971 17.7184 52.2971C17.7877 52.2971 17.8569 52.2979 17.9258 52.2994C17.959 52.2979 17.9923 52.2971 18.0259 52.2971H22.6375V48.3505ZM22.6375 42.519C22.6375 43.5316 21.8116 44.3524 20.7929 44.3524C19.7741 44.3524 18.9482 43.5316 18.9482 42.519C18.9482 41.5065 19.7741 40.6856 20.7929 40.6856C21.8116 40.6856 22.6375 41.5065 22.6375 42.519ZM53.3818 56.575C50.6651 56.575 48.4628 58.7639 48.4628 61.4641C48.4628 64.1642 50.6651 66.3531 53.3818 66.3531C56.0986 66.3531 58.3009 64.1642 58.3009 61.4641C58.3009 61.4121 58.3001 61.3604 58.2985 61.3088C58.3001 61.2589 58.3009 61.2088 58.3009 61.1585V56.575H53.6893C53.6387 56.575 53.5883 56.5758 53.538 56.5774C53.4862 56.5758 53.4341 56.575 53.3818 56.575ZM38.932 56.575H43.5437V61.1585C43.5437 61.2088 43.5428 61.2589 43.5412 61.3088C43.5428 61.3604 43.5437 61.4121 43.5437 61.4641C43.5437 64.1642 41.3413 66.3531 38.6246 66.3531C35.9078 66.3531 33.7055 64.1642 33.7055 61.4641C33.7055 58.7639 35.9078 56.575 38.6246 56.575C38.6768 56.575 38.7289 56.5758 38.7808 56.5774C38.831 56.5758 38.8814 56.575 38.932 56.575ZM18.0259 56.575C17.9753 56.575 17.9248 56.5758 17.8746 56.5774C17.8228 56.5758 17.7707 56.575 17.7184 56.575C15.0017 56.575 12.7993 58.7639 12.7993 61.4641C12.7993 64.1642 15.0017 66.3531 17.7184 66.3531C20.4352 66.3531 22.6375 64.1642 22.6375 61.4641C22.6375 61.4121 22.6367 61.3604 22.6351 61.3088C22.6367 61.2589 22.6375 61.2088 22.6375 61.1585V56.575H18.0259ZM82.0888 42.6763C80.588 41.1846 78.1547 41.1846 76.6539 42.6763C75.1531 44.1679 75.1531 46.5863 76.6539 48.0779C78.1547 49.5696 80.588 49.5696 82.0888 48.0779L83.3777 46.7969H78.8996C78.0507 46.7969 77.3624 46.1129 77.3624 45.2691C77.3624 44.4253 78.0507 43.7413 78.8996 43.7413H83.1603L82.0888 42.6763ZM43.5437 42.519C43.5437 43.5316 42.7178 44.3524 41.699 44.3524C40.6802 44.3524 39.8543 43.5316 39.8543 42.519C39.8543 41.5065 40.6802 40.6856 41.699 40.6856C42.7178 40.6856 43.5437 41.5065 43.5437 42.519ZM56.4563 44.3524C57.4751 44.3524 58.3009 43.5316 58.3009 42.519C58.3009 41.5065 57.4751 40.6856 56.4563 40.6856C55.4375 40.6856 54.6116 41.5065 54.6116 42.519C54.6116 43.5316 55.4375 44.3524 56.4563 44.3524Z" fill="#191919"/>
<path d="M31.5534 40.6856C32.7419 40.6856 33.7055 39.728 33.7055 38.5467C33.7055 37.3654 32.7419 36.4077 31.5534 36.4077C30.3648 36.4077 29.4013 37.3654 29.4013 38.5467C29.4013 39.728 30.3648 40.6856 31.5534 40.6856Z" fill="#191919"/>
</g>
</g>
</g>
<defs>
<clipPath id="clip0_4704_65355">
<rect width="100" height="100" rx="16" fill="white"/>
</clipPath>
</defs>
</svg>
