<svg xmlns="http://www.w3.org/2000/svg" width="165" height="60" viewBox="0 0 165 60" fill="none">
  <path d="M95.6743 33.0145C94.9729 32.445 94.6406 31.7174 94.6406 30.8949V3.15072C94.6406 2.3282 94.9729 1.63223 95.6743 1.06279C96.3388 0.46172 97.1879 0.177002 98.1477 0.177002C99.1075 0.177002 99.9197 0.46172 100.584 1.06279C101.286 1.63223 101.618 2.3282 101.618 3.15072V30.8949C101.618 31.7174 101.286 32.445 100.584 33.0145C99.9197 33.6155 99.1075 33.9003 98.1477 33.9003C97.1879 33.9003 96.3388 33.6155 95.6743 33.0145Z" fill="#1E1926"/>
  <path d="M38.6845 34.2911C37.9868 33.7042 37.6562 32.9869 37.6562 32.1066V11.1097C37.6562 10.2294 37.9868 9.51216 38.6845 8.92529C39.3455 8.30582 40.1534 8.19538 41.1449 8.19538C42.1364 8.19538 42.9443 8.30582 43.6053 8.92529C44.303 9.51216 44.6335 10.2294 44.6335 11.1097V32.1066C44.6335 32.9869 44.303 33.7042 43.6053 34.2911C42.9443 34.9106 42.1364 35.204 41.1449 35.204C40.1534 35.204 39.3455 34.9106 38.6845 34.2911ZM38.6845 6.11978C37.6562 5.15616 37.6562 4.26294 37.6562 3.38263C37.6562 3.15441 37.693 2.95878 37.7297 2.79576C37.8031 2.50233 37.8766 2.30671 37.9133 2.20889C37.9868 2.04588 38.0969 1.88286 38.2438 1.65463C38.354 1.45901 38.5009 1.29599 38.6845 1.19818C39.3455 0.611306 40.1534 0.317871 41.1449 0.317871C42.1364 0.317871 42.9443 0.611306 43.6053 1.19818C43.7889 1.29599 43.9358 1.45901 44.0459 1.65463C44.1928 1.88286 44.303 2.04588 44.3764 2.20889C44.4131 2.30671 44.4866 2.50233 44.56 2.79576C44.5968 2.95878 44.6335 3.15441 44.6335 3.38263C44.6335 4.26294 44.6335 5.15616 43.6053 6.11978C42.9443 6.73926 42.1364 7.07002 41.1449 7.07002C40.1534 7.07002 39.3455 6.73926 38.6845 6.11978Z" fill="#1E1926"/>
  <path d="M19.3533 12.8845C19.9325 13.4978 20.6479 13.7703 21.4656 13.7703C22.2491 13.7703 22.9646 13.4978 23.5437 12.8845C24.1229 12.3054 24.4295 11.5899 24.4295 10.7723C24.4295 9.95465 24.1229 9.27328 23.5437 8.69412C22.9646 8.11496 22.2491 7.80834 21.4656 7.80834C20.6479 7.80834 19.9325 8.11496 19.3533 8.69412C18.7401 9.27328 18.4675 9.95465 18.4675 10.7723C18.4675 11.5899 18.7401 12.3054 19.3533 12.8845ZM24.8656 42.8648V33.9002H16.219C13.9705 33.9002 11.3154 34.7997 9.74828 36.3668C8.11299 37.968 7.42254 40.5822 7.42254 42.8648C7.42254 45.0792 8.11299 47.5912 9.74828 49.1584C11.3154 50.7937 13.9296 51.3433 16.1441 51.3433C18.4267 51.3433 20.9386 50.7937 22.5399 49.1584C24.107 47.5912 24.8656 45.0792 24.8656 42.8648ZM31.8428 26.923H36.4943C37.6572 26.923 39.2334 26.8617 39.9829 27.6453C40.7324 28.3948 41.1458 29.3896 41.1458 30.5525C41.1458 31.5745 40.7324 32.5693 39.9829 33.3188C39.2334 34.0683 37.5504 33.9002 36.4943 33.9002H31.8428V42.8989C31.8428 47.2256 30.2916 51.2911 27.1913 54.3913C24.1252 57.4915 20.5389 58.3205 16.1441 58.3205C11.8174 58.3205 8.17886 57.1054 5.07863 54.0052C1.97839 50.905 0.445312 47.1915 0.445312 42.8648C0.445312 38.47 1.97839 34.7224 5.07863 31.6563C8.17886 28.556 11.8923 26.8549 16.219 26.8549L24.8656 26.923V20.5272C23.8776 20.7998 22.365 21.1087 21.377 21.1087C18.4471 21.1087 16.0146 20.3796 13.9364 18.3014C11.8583 16.2573 10.9111 13.7363 10.9111 10.7723C10.9111 7.84241 11.8583 5.35541 13.9364 3.3113C16.0146 1.23312 18.5357 0.177002 21.4656 0.177002C24.3614 0.177002 26.8484 1.23312 28.9266 3.3113C31.0388 5.35541 31.8428 7.84241 31.8428 10.7723V26.923Z" fill="#1E1926"/>
  <path d="M54.2361 12.8845C54.8153 13.4978 55.5307 13.7703 56.3484 13.7703C57.1319 13.7703 57.8474 13.4978 58.4266 12.8845C59.0057 12.3054 59.3123 11.5899 59.3123 10.7723C59.3123 9.95465 59.0057 9.27328 58.4266 8.69412C57.8474 8.11496 57.1319 7.80834 56.3484 7.80834C55.5307 7.80834 54.8153 8.11496 54.2361 8.69412C53.6229 9.27328 53.3503 9.95465 53.3503 10.7723C53.3503 11.5899 53.6229 12.3054 54.2361 12.8845ZM59.7484 42.8648V33.9002H51.1018C48.8533 33.9002 46.1982 34.7997 44.6311 36.3668C42.9958 37.968 42.3053 40.5822 42.3053 42.8648C42.3053 45.0792 42.9958 47.5912 44.6311 49.1584C46.1982 50.7937 48.8124 51.3433 51.0269 51.3433C53.3095 51.3433 55.8215 50.7937 57.4227 49.1584C58.9898 47.5912 59.7484 45.0792 59.7484 42.8648ZM66.7256 26.923H71.3771C72.54 26.923 74.1162 26.8617 74.8657 27.6453C75.6152 28.3948 76.0286 29.3896 76.0286 30.5525C76.0286 31.5745 75.6152 32.5693 74.8657 33.3188C74.1162 34.0683 72.4332 33.9002 71.3771 33.9002H66.7256V42.8989C66.7256 47.2256 65.1744 51.2911 62.0742 54.3913C59.008 57.4915 55.4217 58.3205 51.0269 58.3205C46.7002 58.3205 43.0617 57.1054 39.9614 54.0052C36.8612 50.905 35.3281 47.1915 35.3281 42.8648C35.3281 38.47 36.8612 34.7224 39.9614 31.6563C43.0617 28.556 46.7751 26.8549 51.1018 26.8549L59.7484 26.923V20.5272C58.7604 20.7998 57.2478 21.1087 56.2598 21.1087C53.3299 21.1087 50.8974 20.3796 48.8192 18.3014C46.7411 16.2573 45.794 13.7363 45.794 10.7723C45.794 7.84241 46.7411 5.35541 48.8192 3.3113C50.8974 1.23312 53.4185 0.177002 56.3484 0.177002C59.2442 0.177002 61.7312 1.23312 63.8094 3.3113C65.9216 5.35541 66.7256 7.84241 66.7256 10.7723V26.923Z" fill="#1E1926"/>
  <path d="M78.658 12.8845C79.2372 13.4978 79.9526 13.7703 80.7702 13.7703C81.5538 13.7703 82.2693 13.4978 82.8484 12.8845C83.4276 12.3054 83.7342 11.5899 83.7342 10.7723C83.7342 9.95465 83.4276 9.27328 82.8484 8.69412C82.2693 8.11496 81.5538 7.80834 80.7702 7.80834C79.9526 7.80834 79.2372 8.11496 78.658 8.69412C78.0448 9.27328 77.7722 9.95465 77.7722 10.7723C77.7722 11.5899 78.0448 12.3054 78.658 12.8845ZM84.1703 42.8648V33.9002H75.5237C73.2752 33.9002 70.6201 34.7997 69.053 36.3668C67.4177 37.968 66.7272 40.5822 66.7272 42.8648C66.7272 45.0792 67.4177 47.5912 69.053 49.1584C70.6201 50.7937 73.2343 51.3433 75.4488 51.3433C77.7313 51.3433 80.2433 50.7937 81.8445 49.1584C83.4117 47.5912 84.1703 45.0792 84.1703 42.8648ZM91.1475 26.923H95.799C96.9619 26.923 98.5381 26.8617 99.2876 27.6453C100.037 28.3948 100.45 29.3896 100.45 30.5525C100.45 31.5745 100.037 32.5693 99.2876 33.3188C98.5381 34.0683 96.8551 33.9002 95.799 33.9002H91.1475V42.8989C91.1475 47.2256 89.5963 51.2911 86.496 54.3913C83.4299 57.4915 79.8436 58.3205 75.4488 58.3205C71.1221 58.3205 67.4835 57.1054 64.3833 54.0052C61.2831 50.905 59.75 47.1915 59.75 42.8648C59.75 38.47 61.2831 34.7224 64.3833 31.6563C67.4835 28.556 71.197 26.8549 75.5237 26.8549L84.1703 26.923V20.5272C83.1823 20.7998 81.6697 21.1087 80.6817 21.1087C77.7518 21.1087 75.3193 20.3796 73.2411 18.3014C71.1629 16.2573 70.2158 13.7363 70.2158 10.7723C70.2158 7.84241 71.1629 5.35541 73.2411 3.3113C75.3193 1.23312 77.8404 0.177002 80.7702 0.177002C83.6661 0.177002 86.1531 1.23312 88.2312 3.3113C90.3435 5.35541 91.1475 7.84241 91.1475 10.7723V26.923Z" fill="#1E1926"/>
  <path d="M123.713 11.8057C122.64 10.2988 120.84 8.31704 118.914 8.31704H114.589C112.6 8.31704 110.99 10.2988 109.758 11.8057H123.713ZM115.189 33.9002C111.747 33.9002 108.843 32.7009 106.444 30.333C104.013 27.9959 102.781 25.1667 102.781 21.8148V14.5881C102.781 11.2362 104.013 8.40702 106.444 6.03913C108.843 3.67125 111.747 2.50269 115.189 2.50269H118.914C122.166 2.50269 124.944 3.60975 127.249 5.85462C129.554 8.0995 130.69 10.8057 130.69 13.9731C130.69 14.8341 130.374 15.2914 129.775 15.8757C129.466 16.1764 128.417 16.4571 127.565 16.4571H109.222C109.127 16.4571 108.596 16.4571 108.596 16.9149V22.2715C108.596 23.9013 109.664 24.8592 110.863 26.0278C112.063 27.1963 113.515 27.7806 115.189 27.7806H118.914C120.43 27.7806 121.724 27.2578 122.797 26.2123C123.871 25.136 123.713 23.7168 123.713 22.2715C123.713 21.4104 124.876 21.1086 124.876 21.1086C124.876 21.1086 126.681 21.1086 127.565 21.1086C128.417 21.1086 129.617 21.1086 129.617 21.1086C129.617 21.1086 130.69 21.4104 130.69 22.2715C130.69 25.4389 129.554 28.2726 127.249 30.5175C124.944 32.7624 122.166 33.9002 118.914 33.9002H115.189Z" fill="#1E1926"/>
  <path fill-rule="evenodd" clip-rule="evenodd" d="M125.834 28.9591L133.689 21.1049C133.835 20.9583 134.004 20.7897 134.163 20.6541C134.346 20.4984 134.617 20.2975 134.986 20.176C135.47 20.0172 135.99 20.015 136.472 20.1699C136.84 20.2883 137.109 20.487 137.291 20.6412C137.449 20.7754 137.616 20.9427 137.762 21.0881L139.964 23.2906L142.077 21.178C142.554 20.7008 142.976 20.2785 143.355 19.9569C143.758 19.6144 144.211 19.2959 144.777 19.1099C145.606 18.8376 146.497 18.834 147.323 19.0994C147.888 19.2807 148.339 19.5954 148.739 19.9346C149.115 20.2531 149.534 20.6719 150.007 21.1452L160.604 31.7421C161.077 32.2153 161.496 32.6341 161.814 33.0098C162.154 33.4099 162.468 33.8611 162.65 34.4256C162.915 35.2519 162.911 36.1431 162.639 36.9717C162.453 37.5376 162.135 37.9915 161.792 38.3944C161.471 38.7727 161.048 39.1949 160.571 39.672L144.402 55.8416C143.924 56.3187 143.502 56.7411 143.124 57.0627C142.721 57.4052 142.267 57.7237 141.701 57.9096C140.873 58.1819 139.981 58.1856 139.155 57.9202C138.591 57.7389 138.139 57.4241 137.739 57.085C137.364 56.7665 136.945 56.3477 136.472 55.8745L125.875 45.2775C125.401 44.8043 124.982 44.3854 124.664 44.0097C124.325 43.6097 124.01 43.1584 123.829 42.594C123.563 41.7677 123.567 40.8764 123.839 40.0479C124.025 39.482 124.344 39.0281 124.686 38.6252C125.008 38.2469 125.43 37.8246 125.907 37.3475L128.02 35.2348L125.818 33.0323C125.672 32.887 125.505 32.7199 125.371 32.5615C125.216 32.3796 125.018 32.1109 124.899 31.7422C124.744 31.2601 124.747 30.7402 124.905 30.2569C125.027 29.8872 125.228 29.6168 125.384 29.4336C125.519 29.2741 125.688 29.1056 125.834 28.9591ZM134.384 25.1864L136.226 27.0286L131.609 31.6461L129.766 29.8039L134.384 25.1864ZM138.255 40.2296L144.959 33.5262L142.783 31.3505L136.08 38.0539L138.255 40.2296Z" fill="#1E1926"/>
</svg>