<svg width="18" height="16" viewBox="0 0 18 16" fill="none" xmlns="http://www.w3.org/2000/svg">
<g id="Hide">
<path id="Stroke 1" d="M7.13021 9.85863C6.65104 9.38029 6.35938 8.73029 6.35938 8.00113C6.35938 6.54029 7.53604 5.36279 8.99604 5.36279C9.71854 5.36279 10.3835 5.65529 10.8544 6.13363" stroke="#1E1926" stroke-width="1.2" stroke-linecap="round" stroke-linejoin="round"/>
<path id="Stroke 3" d="M11.5829 8.46875C11.3896 9.54375 10.5429 10.3921 9.46875 10.5871" stroke="#1E1926" stroke-width="1.2" stroke-linecap="round" stroke-linejoin="round"/>
<path id="Stroke 5" d="M4.54323 12.4467C3.22073 11.4084 2.10073 9.89171 1.28906 8.00087C2.10906 6.10171 3.23656 4.57671 4.5674 3.53004C5.8899 2.48337 7.41573 1.91504 8.9974 1.91504C10.5882 1.91504 12.1132 2.49171 13.4441 3.54587" stroke="#1E1926" stroke-width="1.2" stroke-linecap="round" stroke-linejoin="round"/>
<path id="Stroke 7" d="M15.2073 5.37891C15.7806 6.14057 16.2848 7.01974 16.709 8.00057C15.0698 11.7981 12.1731 14.0856 9.00063 14.0856C8.28146 14.0856 7.57229 13.9689 6.89062 13.7414" stroke="#1E1926" stroke-width="1.2" stroke-linecap="round" stroke-linejoin="round"/>
<path id="Stroke 9" d="M15.5669 1.42773L2.42188 14.5727" stroke="#1E1926" stroke-width="1.2" stroke-linecap="round" stroke-linejoin="round"/>
</g>
</svg>
