<svg width="18" height="17" viewBox="0 0 18 17" fill="currentColor" xmlns="http://www.w3.org/2000/svg">
<path fill-rule="evenodd" clip-rule="evenodd" d="M1.62736 5.21386L8.52202 1.00046C8.81546 0.821136 9.18458 0.821136 9.47801 1.00046L16.3727 5.21386C16.9176 5.5469 17.25 6.13954 17.25 6.77821V14.9167C17.25 15.9293 16.4292 16.7501 15.4167 16.7501L2.58333 16.7501C1.57081 16.7501 0.75 15.9293 0.75 14.9167L0.750015 6.77821C0.750016 6.13954 1.08239 5.5469 1.62736 5.21386ZM7.16668 9.41668C6.66042 9.41668 6.25002 9.82709 6.25002 10.3334V13.0834C6.25002 13.5896 6.66042 14 7.16668 14H10.8333C11.3396 14 11.75 13.5896 11.75 13.0834V10.3334C11.75 9.82709 11.3396 9.41668 10.8333 9.41668H7.16668Z"/>
</svg>
