<svg width="25" height="24" viewBox="0 0 25 24" fill="none" xmlns="http://www.w3.org/2000/svg">
<path d="M3.50005 18.0001C3.5 17.9355 3.5 17.8689 3.5 17.8002V6.2002C3.5 5.08009 3.5 4.51962 3.71799 4.0918C3.90973 3.71547 4.21547 3.40973 4.5918 3.21799C5.01962 3 5.58009 3 6.7002 3H18.3002C19.4203 3 19.9801 3 20.4079 3.21799C20.7842 3.40973 21.0905 3.71547 21.2822 4.0918C21.5 4.5192 21.5 5.07899 21.5 6.19691V17.8031C21.5 18.2881 21.5 18.6679 21.4822 18.9774M3.50005 18.0001C3.50082 18.9884 3.51337 19.5058 3.71799 19.9074C3.90973 20.2837 4.21547 20.5905 4.5918 20.7822C5.0192 21 5.57899 21 6.69691 21H18.3036C19.4215 21 19.9805 21 20.4079 20.7822C20.7842 20.5905 21.0905 20.2837 21.2822 19.9074C21.4055 19.6654 21.459 19.3813 21.4822 18.9774M3.50005 18.0001L8.26798 12.4375L8.26939 12.436C8.69227 11.9426 8.90406 11.6955 9.15527 11.6064C9.37594 11.5282 9.61686 11.53 9.83643 11.6113C10.0866 11.704 10.2951 11.9539 10.7119 12.4541L13.3831 15.6595C13.769 16.1226 13.963 16.3554 14.1986 16.4489C14.4065 16.5313 14.6357 16.5406 14.8501 16.4773C15.0942 16.4053 15.3091 16.1904 15.7388 15.7607L16.2358 15.2637C16.6733 14.8262 16.8921 14.6076 17.1397 14.5361C17.3571 14.4734 17.5896 14.4869 17.7988 14.5732C18.037 14.6716 18.2302 14.9124 18.6167 15.3955L21.4822 18.9774M21.4822 18.9774L21.5 18.9996M15.5 9C14.9477 9 14.5 8.55228 14.5 8C14.5 7.44772 14.9477 7 15.5 7C16.0523 7 16.5 7.44772 16.5 8C16.5 8.55228 16.0523 9 15.5 9Z" stroke="#8F919D" stroke-width="1.8" stroke-linecap="round" stroke-linejoin="round"/>
</svg>
