<svg width="16" height="16" viewBox="0 0 16 16" xmlns="http://www.w3.org/2000/svg" fill="currentColor">
<path opacity="0.3" d="M8.00016 14.6667C11.6821 14.6667 14.6668 11.6819 14.6668 8.00004C14.6668 4.31814 11.6821 1.33337 8.00016 1.33337C4.31826 1.33337 1.3335 4.31814 1.3335 8.00004C1.3335 11.6819 4.31826 14.6667 8.00016 14.6667Z"/>
<path d="M8.66683 7.33329C8.66683 6.9651 8.36835 6.66663 8.00016 6.66663C7.63197 6.66663 7.3335 6.9651 7.3335 7.33329V10.6666C7.3335 11.0348 7.63197 11.3333 8.00016 11.3333C8.36835 11.3333 8.66683 11.0348 8.66683 10.6666V7.33329Z"/>
<path d="M8.66683 5.33329C8.66683 4.9651 8.36835 4.66663 8.00016 4.66663C7.63197 4.66663 7.3335 4.9651 7.3335 5.33329C7.3335 5.70148 7.63197 5.99996 8.00016 5.99996C8.36835 5.99996 8.66683 5.70148 8.66683 5.33329Z"/>
</svg>
