<svg width="20" height="20" viewBox="0 0 20 20" fill="none" xmlns="http://www.w3.org/2000/svg">
<g id="Group">
<path id="Vector" d="M4.16748 8.75C4.16748 5 6.66748 2.5 10.4175 2.5C14.1675 2.5 16.6675 5.625 16.6675 8.75C16.6675 10.6938 14.8539 13.3631 11.2266 16.7577C10.7636 17.191 10.0496 17.209 9.56536 16.7996C5.96677 13.7565 4.16748 11.0733 4.16748 8.75ZM10.4175 10C11.5681 10 12.5008 9.06726 12.5008 7.91667C12.5008 6.76607 11.5681 5.83333 10.4175 5.83333C9.26689 5.83333 8.33415 6.76607 8.33415 7.91667C8.33415 9.06726 9.26689 10 10.4175 10Z" fill="#FFD817"/>
</g>
</svg>
