<svg width="20" height="20" viewBox="0 0 20 20" fill="none" xmlns="http://www.w3.org/2000/svg">
<g id="Group">
<path id="Vector" opacity="0.3" d="M11.2492 2.49987C11.2492 2.03963 10.8761 1.66653 10.4159 1.66653C9.95562 1.66653 9.58252 2.03963 9.58252 2.49987V4.16653C9.58252 4.62677 9.95562 4.99987 10.4159 4.99987C10.8761 4.99987 11.2492 4.62677 11.2492 4.16653V2.49987Z" fill="#FFD817"/>
<path id="Vector_2" opacity="0.3" d="M11.2492 14.1668C11.2492 13.7066 10.8761 13.3335 10.4159 13.3335C9.95562 13.3335 9.58252 13.7066 9.58252 14.1668V16.6668C9.58252 17.127 9.95562 17.5001 10.4159 17.5001C10.8761 17.5001 11.2492 17.127 11.2492 16.6668V14.1668Z" fill="#FFD817"/>
<path id="Vector_3" fill-rule="evenodd" clip-rule="evenodd" d="M12.9098 6.70344C12.6776 6.40789 12.3741 6.17303 11.9994 5.99886C11.6247 5.82469 11.2632 5.73761 10.9148 5.73761C10.7354 5.73761 10.5533 5.75344 10.3686 5.78511C10.1839 5.81678 10.0176 5.87747 9.86982 5.9672C9.72205 6.05692 9.59802 6.17303 9.49774 6.31553C9.39746 6.45803 9.34732 6.64011 9.34732 6.86178C9.34732 7.05178 9.38691 7.21011 9.46607 7.33678C9.54524 7.46345 9.66135 7.57428 9.81441 7.66928C9.96746 7.76428 10.1495 7.85136 10.3607 7.93053C10.5718 8.0097 10.8093 8.0915 11.0732 8.17595C11.4532 8.30261 11.849 8.44247 12.2607 8.59553C12.6723 8.74858 13.047 8.95178 13.3848 9.20511C13.7226 9.45845 14.0023 9.77247 14.224 10.1472C14.4457 10.5219 14.5565 10.989 14.5565 11.5484C14.5565 12.1923 14.4377 12.7491 14.2002 13.2189C13.9627 13.6886 13.6434 14.0765 13.2423 14.3826C12.8412 14.6887 12.382 14.9157 11.8648 15.0634C11.3476 15.2112 10.8145 15.2851 10.2657 15.2851C9.46343 15.2851 8.68761 15.1453 7.93816 14.8655C7.18871 14.5858 6.56594 14.1873 6.06982 13.6701L7.84316 11.8651C8.1176 12.2029 8.47913 12.4852 8.92774 12.7122C9.37635 12.9391 9.82232 13.0526 10.2657 13.0526C10.4662 13.0526 10.6615 13.0315 10.8515 12.9893C11.0415 12.9471 11.2077 12.8784 11.3502 12.7834C11.4927 12.6884 11.6062 12.5618 11.6907 12.4034C11.7751 12.2451 11.8173 12.0551 11.8173 11.8334C11.8173 11.6223 11.7645 11.4429 11.659 11.2951C11.5534 11.1473 11.403 11.0128 11.2077 10.8914C11.0125 10.77 10.7697 10.6591 10.4794 10.5589C10.1891 10.4586 9.85927 10.3504 9.48982 10.2343C9.13093 10.1182 8.77996 9.98095 8.43691 9.82261C8.09385 9.66428 7.78774 9.46109 7.51857 9.21303C7.24941 8.96497 7.03302 8.66414 6.86941 8.31053C6.7058 7.95692 6.62399 7.52678 6.62399 7.02011C6.62399 6.39733 6.75066 5.86428 7.00399 5.42095C7.25733 4.97761 7.58982 4.61345 8.00149 4.32845C8.41316 4.04344 8.8776 3.83497 9.39482 3.70303C9.91205 3.57108 10.4345 3.50511 10.9623 3.50511C11.5957 3.50511 12.2422 3.62122 12.9019 3.85345C13.5616 4.08567 14.1395 4.42872 14.6357 4.88261L12.9098 6.70344Z" fill="#FFD817"/>
</g>
</svg>
