<svg width="22" height="23" viewBox="0 0 22 23" fill="currentColor" xmlns="http://www.w3.org/2000/svg">
<path fill-rule="evenodd" clip-rule="evenodd" d="M5.4987 2.33374H16.4987C17.005 2.33374 17.4154 2.74415 17.4154 3.25041V11.5004C17.4154 12.0067 17.005 12.4171 16.4987 12.4171H5.4987C4.99244 12.4171 4.58203 12.0067 4.58203 11.5004V3.25041C4.58203 2.74415 4.99244 2.33374 5.4987 2.33374ZM6.8737 5.08374C6.62057 5.08374 6.41536 5.28894 6.41536 5.54207C6.41536 5.7952 6.62057 6.00041 6.8737 6.00041H12.3737C12.6268 6.00041 12.832 5.7952 12.832 5.54207C12.832 5.28894 12.6268 5.08374 12.3737 5.08374H6.8737ZM6.8737 6.91707C6.62057 6.91707 6.41536 7.12228 6.41536 7.37541C6.41536 7.62854 6.62057 7.83374 6.8737 7.83374H9.6237C9.87683 7.83374 10.082 7.62854 10.082 7.37541C10.082 7.12228 9.87683 6.91707 9.6237 6.91707H6.8737Z"/>
<path d="M18.3125 6.06616C18.7048 5.83915 19.2055 5.92 19.5068 6.25854L19.5684 6.33569L19.6465 6.46362C19.7141 6.59712 19.7499 6.74521 19.75 6.89624V16.0837C19.7499 17.3722 18.7054 18.4166 17.417 18.4167H4.58301C3.29456 18.4166 2.25011 17.3722 2.25 16.0837V6.89624C2.25019 6.36724 2.679 5.93841 3.20801 5.93823L3.3584 5.94995C3.45699 5.96558 3.55256 5.99662 3.6416 6.04175L3.76953 6.11987L11 11.3416L18.2305 6.11987L18.3125 6.06616Z" stroke="white"/>
</svg>
