<svg width="22" height="23" viewBox="0 0 22 23" fill="currentColor" xmlns="http://www.w3.org/2000/svg">
<path d="M13.1025 15.8148C12.7445 15.4569 12.7445 14.8765 13.1025 14.5185C13.4605 14.1605 14.0409 14.1605 14.3988 14.5185L18.0655 18.1852C18.4235 18.5431 18.4235 19.1235 18.0655 19.4815C17.7075 19.8395 17.1271 19.8395 16.7691 19.4815L13.1025 15.8148Z"/>
<path d="M10.0827 15.1667C12.614 15.1667 14.666 13.1147 14.666 10.5834C14.666 8.05211 12.614 6.00008 10.0827 6.00008C7.55138 6.00008 5.49935 8.05211 5.49935 10.5834C5.49935 13.1147 7.55138 15.1667 10.0827 15.1667ZM10.0827 17.0001C6.53886 17.0001 3.66602 14.1272 3.66602 10.5834C3.66602 7.03959 6.53886 4.16675 10.0827 4.16675C13.6265 4.16675 16.4993 7.03959 16.4993 10.5834C16.4993 14.1272 13.6265 17.0001 10.0827 17.0001Z"/>
</svg>
