<svg width="37" height="37" viewBox="0 0 37 37" fill="none" xmlns="http://www.w3.org/2000/svg">
<path opacity="0.3" d="M27.75 21.5C25.2647 21.5 23.25 19.4853 23.25 17C23.25 14.5147 25.2647 12.5 27.75 12.5C30.2353 12.5 32.25 14.5147 32.25 17C32.25 19.4853 30.2353 21.5 27.75 21.5ZM14.25 17C10.9363 17 8.25 14.3137 8.25 11C8.25 7.68629 10.9363 5 14.25 5C17.5637 5 20.25 7.68629 20.25 11C20.25 14.3137 17.5637 17 14.25 17Z" fill="currentColor"/>
<path d="M27.1518 23.0009C32.2616 23.0568 36.4338 25.6402 36.7477 31.1C36.7604 31.3199 36.7477 32 35.9339 32H30.15C30.15 28.6236 29.0344 25.5077 27.1518 23.0009ZM0.750978 30.7988C1.33239 23.6398 7.14287 20 14.225 20C21.4068 20 27.3073 23.4398 27.7469 30.8C27.7644 31.0932 27.7469 32 26.6201 32C21.0617 32 12.8021 32 1.84125 32C1.46507 32 0.719307 31.1888 0.750978 30.7988Z" fill="currentColor"/>
</svg>
