<svg width="20" height="20" viewBox="0 0 20 20" fill="none" xmlns="http://www.w3.org/2000/svg">
<g id="Iconography">
<path id="Path" d="M10.4362 10.9187C9.74557 10.2281 9.71506 10.1985 9.71506 10.1985C8.39208 8.82623 7.68266 7.98418 6.91264 6.9015L6.75075 6.67182L7.52273 5.84763L7.54074 5.8289C7.58619 5.77935 7.6546 5.6894 7.72101 5.57334L7.75253 5.51583C8.0456 4.95657 8.00155 4.30162 7.44509 3.7069L7.40746 3.66802L5.85999 1.74746L5.82561 1.70873C5.75329 1.63019 5.65936 1.54564 5.5382 1.46202C4.96853 1.06887 4.28327 1.04967 3.68036 1.65412L2.05595 3.32803L2.02563 3.36227C1.99692 3.39785 1.97312 3.4373 1.95492 3.47955C1.9273 3.54371 1.89485 3.64394 1.86546 3.77982C1.71664 4.46778 1.77822 5.38894 2.18151 6.52944L2.22706 6.65518C2.78854 8.16928 3.88753 9.87088 5.63266 11.759L5.76745 11.9036L5.79382 11.935C5.85316 12.0045 5.91344 12.0688 5.99246 12.1478L6.12621 12.2789L6.72889 12.8899L7.62922 13.7819L7.76035 13.9157C7.83937 13.9947 7.90359 14.055 7.97314 14.1143L8.00454 14.1407L8.1491 14.2755C10.0372 16.0206 11.7388 17.1196 13.2529 17.6811L13.3787 17.7266C14.5192 18.1299 15.4403 18.1915 16.1283 18.0427C16.2642 18.0133 16.3644 17.9808 16.4286 17.9532C16.4708 17.935 16.5103 17.9112 16.5459 17.8825L16.5801 17.8522L18.254 16.2278C18.8585 15.6248 18.8393 14.9396 18.4461 14.3699C18.3625 14.2488 18.2779 14.1548 18.1994 14.0825L18.1607 14.0481L16.2401 12.5007L16.2012 12.463C15.6065 11.9066 14.9516 11.8625 14.3923 12.1556L14.3348 12.1871C14.2187 12.2535 14.1288 12.3219 14.0792 12.3674L14.0605 12.3854L13.4424 12.9326L13.2529 13.1224" stroke="#222222" stroke-width="1.5" stroke-linecap="round"/>
</g>
</svg>
