<svg width="16" height="16" viewBox="0 0 16 16" fill="none" xmlns="http://www.w3.org/2000/svg">
<g id="Shape">
<path id="Vector" d="M7.99974 1.56641C8.33111 1.56641 8.59974 1.83504 8.59974 2.16641V7.39974H13.8331C14.1644 7.39974 14.4331 7.66837 14.4331 7.99974C14.4331 8.33111 14.1644 8.59974 13.8331 8.59974H8.59974V13.8331C8.59974 14.1644 8.33111 14.4331 7.99974 14.4331C7.66837 14.4331 7.39974 14.1644 7.39974 13.8331V8.59974H2.16641C1.83504 8.59974 1.56641 8.33111 1.56641 7.99974C1.56641 7.66837 1.83504 7.39974 2.16641 7.39974H7.39974V2.16641C7.39974 1.83504 7.66837 1.56641 7.99974 1.56641Z" fill="#ABB0B9"/>
</g>
</svg>
