<svg width="22" height="23" viewBox="0 0 22 23" fill="none" xmlns="http://www.w3.org/2000/svg">
<path d="M11.0007 10.5833C8.97561 10.5833 7.33398 8.94171 7.33398 6.91667C7.33398 4.89162 8.97561 3.25 11.0007 3.25C13.0257 3.25 14.6673 4.89162 14.6673 6.91667C14.6673 8.94171 13.0257 10.5833 11.0007 10.5833Z" fill="#A9ABB8"/>
<path d="M2.7506 19.0158C3.1059 14.6408 6.65675 12.4165 10.9847 12.4165C15.3736 12.4165 18.9795 14.5186 19.2481 19.0165C19.2588 19.1957 19.2481 19.7498 18.5595 19.7498C15.1627 19.7498 10.1152 19.7498 3.41688 19.7498C3.18699 19.7498 2.73124 19.2541 2.7506 19.0158Z" fill="#A9ABB8"/>
</svg>
