<svg width="20" height="20" viewBox="0 0 20 20" fill="none" xmlns="http://www.w3.org/2000/svg">
<g id="Group">
<path id="Vector" fill-rule="evenodd" clip-rule="evenodd" d="M11.4038 15.5901C13.2587 14.8491 15.5683 14.3746 18.3325 14.1666C18.3325 14.1104 18.3325 10.9177 18.3325 4.58852C18.3325 4.35841 18.146 4.17188 17.9159 4.17188C17.9123 4.17188 17.9088 4.17192 17.9053 4.17201C15.5477 4.23169 13.1901 4.78545 10.8325 5.83327C10.8325 5.87035 10.8325 8.99365 10.8325 15.2032C10.8325 15.4333 11.0191 15.6199 11.2492 15.6199C11.3021 15.6199 11.3546 15.6098 11.4038 15.5901Z" fill="#FFD817"/>
<path id="Vector_2" opacity="0.3" fill-rule="evenodd" clip-rule="evenodd" d="M8.59623 15.5901C6.74133 14.8491 4.43174 14.3746 1.66748 14.1666C1.66748 14.1104 1.66748 10.9177 1.66748 4.58852C1.66748 4.35841 1.85404 4.17188 2.08415 4.17188C2.08766 4.17188 2.09118 4.17192 2.09469 4.17201C4.45229 4.23169 6.80988 4.78545 9.16748 5.83327C9.16748 5.87035 9.16748 8.99365 9.16748 15.2032C9.16748 15.4333 8.98094 15.6199 8.75081 15.6199C8.69786 15.6199 8.6454 15.6098 8.59623 15.5901Z" fill="#FFD817"/>
</g>
</svg>