<svg width="87" height="73" viewBox="0 0 87 73" fill="none" xmlns="http://www.w3.org/2000/svg">
<path d="M19.9598 13.8771C20.5712 14.5227 21.3264 14.8096 22.1896 14.8096C23.0167 14.8096 23.772 14.5227 24.3834 13.8771C24.9947 13.2675 25.3184 12.5143 25.3184 11.6536C25.3184 10.7929 24.9947 10.0756 24.3834 9.46591C23.772 8.85623 23.0167 8.53345 22.1896 8.53345C21.3264 8.53345 20.5712 8.85623 19.9598 9.46591C19.3125 10.0756 19.0248 10.7929 19.0248 11.6536C19.0248 12.5143 19.3125 13.2675 19.9598 13.8771ZM25.3184 45.4371V36.794H16.6512C14.2776 36.794 12.2996 37.6547 10.6452 39.3045C8.91899 40.99 8.05586 43.0343 8.05586 45.4371C8.05586 47.7683 8.91899 49.7766 10.6452 51.4264C12.2996 53.1478 14.3135 54.0085 16.6512 54.0085C19.0607 54.0085 21.1107 53.1478 22.801 51.4264C24.4553 49.7766 25.3184 47.7683 25.3184 45.4371ZM33.4102 28.7964H39.6319C40.7109 28.7964 41.6819 29.1909 42.4731 30.0158C43.2643 30.8048 43.6599 31.7372 43.6239 32.8849C43.6239 33.9608 43.2283 34.9291 42.4371 35.7181C41.6459 36.5071 40.7109 36.9016 39.596 36.9016L33.4102 36.8657V45.4371C33.4102 49.9918 31.7559 53.901 28.4832 57.1645C25.2465 60.4281 21.2905 62.042 16.6512 62.042C12.0838 62.042 8.16375 60.4281 4.89106 57.1645C1.61836 53.901 0 49.9918 0 45.4371C0 40.8107 1.61836 36.8657 4.89106 33.638C8.16375 30.3744 12.0838 28.7247 16.6512 28.7247L25.3184 28.7605V22.4485C24.2755 22.7355 23.2325 22.8789 22.1896 22.8789C19.0967 22.8789 16.4354 21.7671 14.2416 19.5795C12.0478 17.4276 10.9329 14.7737 10.9329 11.6536C10.9329 8.56932 12.0478 5.95127 14.2416 3.79945C16.4354 1.61177 19.0967 0.5 22.1896 0.5C25.2465 0.5 27.8718 1.61177 30.0656 3.79945C32.2954 5.95127 33.4102 8.56932 33.4102 11.6536V28.7964Z" fill="#1E1926"/>
<path fill-rule="evenodd" clip-rule="evenodd" d="M40.5739 32.2851L48.531 27.698C48.6795 27.6124 48.8502 27.5139 49.0067 27.4399C49.1865 27.3549 49.4458 27.2527 49.7679 27.2357C50.189 27.2134 50.6063 27.3247 50.9601 27.5535C51.2307 27.7286 51.4042 27.9462 51.5175 28.1093C51.6161 28.2513 51.7148 28.4217 51.8006 28.5697L53.1012 30.8134L55.2415 29.5796C55.7248 29.3009 56.1527 29.0542 56.524 28.8787C56.9194 28.6918 57.3506 28.5352 57.8437 28.5092C58.5656 28.4711 59.281 28.6618 59.8875 29.0541C60.3017 29.322 60.597 29.6723 60.8461 30.0311C61.0801 30.3679 61.3274 30.7946 61.6068 31.2767L67.8645 42.0715C68.144 42.5536 68.3914 42.9802 68.5674 43.3505C68.7548 43.7448 68.9118 44.1749 68.9379 44.6666C68.9761 45.3864 68.7849 46.0998 68.3915 46.7046C68.1228 47.1177 67.7715 47.4122 67.4118 47.6606C67.074 47.8939 66.6462 48.1405 66.1628 48.4191L49.7813 57.8627C49.2979 58.1413 48.87 58.388 48.4987 58.5635C48.1033 58.7504 47.6721 58.907 47.179 58.9331C46.4572 58.9712 45.7418 58.7804 45.1353 58.3881C44.7211 58.1202 44.4257 57.7699 44.1766 57.4112C43.9427 57.0743 43.6954 56.6477 43.416 56.1657L37.1582 45.3707C36.8788 44.8887 36.6314 44.4619 36.4554 44.0917C36.268 43.6974 36.111 43.2674 36.0848 42.7757C36.0466 42.0558 36.2379 41.3424 36.6313 40.7376C36.8999 40.3245 37.2512 40.03 37.6109 39.7816C37.9488 39.5483 38.3766 39.3017 38.86 39.0231L41.0004 37.7892L39.6997 35.5456C39.6139 35.3975 39.5151 35.2273 39.4409 35.0712C39.3557 34.8919 39.2532 34.6333 39.2361 34.3121C39.2138 33.8922 39.3254 33.476 39.5548 33.1233C39.7304 32.8534 39.9486 32.6803 40.1122 32.5674C40.2546 32.4691 40.4254 32.3707 40.5739 32.2851ZM48.2263 31.1199L49.3142 32.9965L44.6361 35.6933L43.5482 33.8167L48.2263 31.1199ZM48.1519 44.0162L54.9432 40.1012L53.6583 37.8848L46.867 41.7998L48.1519 44.0162Z" fill="#1E1926"/>
</svg>
