<svg width="18" height="18" viewBox="0 0 18 18" fill="none" xmlns="http://www.w3.org/2000/svg">
<g id="Iconography">
<path id="Path" fill-rule="evenodd" clip-rule="evenodd" d="M9.73416 13.4482C9.73416 13.1169 9.46553 12.8482 9.13416 12.8482H6.80165C3.99876 12.8482 1.72656 10.5525 1.72656 7.72051C1.72656 4.88854 3.99876 2.59277 6.80165 2.59277H11.2001C14.0029 2.59277 16.2751 4.88854 16.2751 7.72051C16.2751 7.72051 16.2751 10.403 13.3785 13.0851C12.8425 13.5416 11.3006 14.9345 10.4034 15.7476C10.146 15.9808 9.73416 15.7977 9.73416 15.4504V13.4482Z" stroke="#222222" stroke-width="0.8" stroke-linecap="round"/>
<circle id="Oval" cx="5.96542" cy="7.60213" r="0.385338" stroke="#222222" stroke-width="0.8" stroke-linecap="round"/>
<ellipse id="Oval Copy" cx="9.04745" cy="7.60213" rx="0.385338" ry="0.385338" stroke="#222222" stroke-width="0.8" stroke-linecap="round"/>
<ellipse id="Oval Copy 2" cx="12.1295" cy="7.60213" rx="0.385338" ry="0.385338" stroke="#222222" stroke-width="0.8" stroke-linecap="round"/>
</g>
</svg>
