<svg width="18" height="19" viewBox="0 0 18 19" fill="none" xmlns="http://www.w3.org/2000/svg">
<path d="M9 5.75C9.82843 5.75 10.5 5.07843 10.5 4.25C10.5 3.42157 9.82843 2.75 9 2.75C8.17157 2.75 7.5 3.42157 7.5 4.25C7.5 5.07843 8.17157 5.75 9 5.75Z" fill="#A9ABB8"/>
<path d="M9 11C9.82843 11 10.5 10.3284 10.5 9.5C10.5 8.67157 9.82843 8 9 8C8.17157 8 7.5 8.67157 7.5 9.5C7.5 10.3284 8.17157 11 9 11Z" fill="#A9ABB8"/>
<path d="M9 16.25C9.82843 16.25 10.5 15.5784 10.5 14.75C10.5 13.9216 9.82843 13.25 9 13.25C8.17157 13.25 7.5 13.9216 7.5 14.75C7.5 15.5784 8.17157 16.25 9 16.25Z" fill="#A9ABB8"/>
</svg>
