<svg width="20" height="20" viewBox="0 0 20 20" fill="none" xmlns="http://www.w3.org/2000/svg">
<g id="Group">
<path id="Vector" d="M16.6675 4.1665H2.50081C2.04058 4.1665 1.66748 4.5396 1.66748 4.99984V6.6665C1.66748 7.12674 2.04058 7.49984 2.50081 7.49984H16.6675C17.1277 7.49984 17.5008 7.12674 17.5008 6.6665V4.99984C17.5008 4.5396 17.1277 4.1665 16.6675 4.1665Z" fill="#FFD817"/>
<path id="Vector_2" opacity="0.3" d="M16.6675 9.1665H2.50081C2.04058 9.1665 1.66748 9.5396 1.66748 9.99984V16.6665C1.66748 17.1267 2.04058 17.4998 2.50081 17.4998H16.6675C17.1277 17.4998 17.5008 17.1267 17.5008 16.6665V9.99984C17.5008 9.5396 17.1277 9.1665 16.6675 9.1665Z" fill="#FFD817"/>
</g>
</svg>