<svg width="24" height="24" viewBox="0 0 24 24" fill="currentColor" xmlns="http://www.w3.org/2000/svg">
<path opacity="0.3" fill-rule="evenodd" clip-rule="evenodd" d="M11.4444 6.99962L5.88333 17.0096C5.70452 17.3314 5.82049 17.7373 6.14234 17.9161C6.24138 17.9711 6.35281 18 6.4661 18H18.1444C18.5126 18 18.8111 17.7015 18.8111 17.3333C18.8111 17.2107 18.7772 17.0904 18.7132 16.9857L12.596 6.97575C12.4041 6.66158 11.9937 6.56253 11.6796 6.75452C11.5813 6.81455 11.5003 6.89899 11.4444 6.99962Z"/>
<path d="M12.6668 10.6667C12.6668 10.2985 12.3684 10 12.0002 10C11.632 10 11.3335 10.2985 11.3335 10.6667V14C11.3335 14.3682 11.632 14.6667 12.0002 14.6667C12.3684 14.6667 12.6668 14.3682 12.6668 14V10.6667Z"/>
<path d="M12.6668 16C12.6668 15.6319 12.3684 15.3334 12.0002 15.3334C11.632 15.3334 11.3335 15.6319 11.3335 16C11.3335 16.3682 11.632 16.6667 12.0002 16.6667C12.3684 16.6667 12.6668 16.3682 12.6668 16Z" />
</svg>
