<svg width="30" height="30" viewBox="0 0 61 52" fill="none" xmlns="http://www.w3.org/2000/svg">
<g id="Logo">
<path id="Union" fill-rule="evenodd" clip-rule="evenodd" d="M18.9184 12.5527C18.208 12.5527 17.5865 12.3184 17.0833 11.791C16.5505 11.293 16.3138 10.6777 16.3138 9.97461C16.3138 9.27148 16.5505 8.68554 17.0833 8.1875C17.5865 7.68945 18.208 7.42578 18.9184 7.42578C19.5992 7.42578 20.2207 7.68945 20.7239 8.1875C21.2271 8.68554 21.4935 9.27148 21.4935 9.97461C21.4935 10.6777 21.2271 11.293 20.7239 11.791C20.2207 12.3184 19.5992 12.5527 18.9184 12.5527ZM21.4935 30.5117V37.5723C21.4935 39.4766 20.7831 41.1172 19.4216 42.4648C18.0305 43.8711 16.3433 44.5742 14.3603 44.5742C12.4364 44.5742 10.7789 43.8711 9.41735 42.4648C7.99663 41.1172 7.28627 39.4766 7.28627 37.5723C7.28627 35.6094 7.99663 33.9394 9.41735 32.5625C10.7789 31.2148 12.4068 30.5117 14.3603 30.5117H21.4935ZM33.2736 23.9785H28.1531V9.97461C28.1531 7.45508 27.2355 5.3164 25.4004 3.55859C23.5949 1.77148 21.4343 0.863281 18.9184 0.863281C16.3729 0.863281 14.1827 1.77148 12.3772 3.55859C10.5717 5.3164 9.65413 7.45508 9.65413 9.97461C9.65413 12.5234 10.5717 14.6914 12.3772 16.4492C14.1827 18.2363 16.3729 19.1445 18.9184 19.1445C19.7768 19.1445 20.6351 19.0273 21.4935 18.793V23.9492L14.3603 23.9199C10.6013 23.9199 7.37506 25.2676 4.68162 27.9336C1.98817 30.5703 0.65625 33.793 0.65625 37.5723C0.65625 41.293 1.98817 44.4863 4.68162 47.1523C7.37506 49.8183 10.6013 51.1367 14.3603 51.1367C18.1784 51.1367 21.4343 49.8183 24.0981 47.1523C26.7915 44.4863 28.1531 41.293 28.1531 37.5723V30.5703L33.244 30.5996C33.7791 30.5996 34.2638 30.49 34.7041 30.2708C34.7518 30.3922 34.8144 30.5082 34.8909 30.616C35.0435 30.831 35.2282 30.9657 35.3662 31.053C35.4863 31.129 35.6298 31.2042 35.7545 31.2695L37.6445 32.2607L36.6919 34.0403L36.6919 34.0403C36.4767 34.4422 36.2863 34.7979 36.1529 35.1055C36.0107 35.433 35.8947 35.7887 35.8882 36.1909C35.8787 36.7797 36.0578 37.3564 36.3997 37.8382C36.6333 38.1674 36.9311 38.3972 37.2346 38.5892C37.5195 38.7695 37.879 38.958 38.285 39.1709L47.3782 43.9396L47.3785 43.9397C47.7844 44.1526 48.1436 44.341 48.4543 44.4731C48.7852 44.6138 49.1446 44.7286 49.5509 44.7351C50.1457 44.7445 50.7283 44.5673 51.2152 44.2288C51.5477 43.9976 51.7799 43.7028 51.9739 43.4024C52.156 43.1204 52.3464 42.7646 52.5615 42.3627L59.8522 28.7422C60.0674 28.3403 60.2578 27.9846 60.3912 27.6771C60.5334 27.3495 60.6494 26.9938 60.6559 26.5916C60.6654 26.0028 60.4863 25.4261 60.1444 24.9443C59.9108 24.6151 59.613 24.3853 59.3095 24.1933C59.0246 24.013 58.6652 23.8246 58.2592 23.6117L58.2591 23.6116L49.166 18.843L49.166 18.8429C48.7599 18.63 48.4006 18.4415 48.0898 18.3094C47.7589 18.1687 47.3995 18.0539 46.9932 18.0474C46.3983 18.038 45.8158 18.2153 45.3289 18.5537C44.9964 18.7849 44.7642 19.0797 44.5702 19.3801C44.3881 19.6621 44.1977 20.0179 43.9826 20.4198L43.03 22.1994L41.1401 21.2082C41.0154 21.1428 40.872 21.0675 40.741 21.0118C40.5905 20.9479 40.3742 20.8722 40.1087 20.868C39.7617 20.8625 39.4219 20.9659 39.1379 21.1633C38.9207 21.3144 38.7846 21.4973 38.6964 21.6338C38.6196 21.7527 38.5437 21.8947 38.4776 22.0182L36.3346 26.0218C36.1754 25.6395 35.9333 25.2928 35.6118 24.9746C34.9607 24.3008 34.1615 23.9785 33.2736 23.9785ZM41.3446 25.3481L39.7638 24.5191L37.6818 28.4087L39.2626 29.2377L41.3446 25.3481ZM48.3829 27.8336L45.3604 33.4803L43.4934 32.5012L46.5159 26.8545L48.3829 27.8336Z" fill="#FEF387"/>
</g>
</svg>
