<svg width="20" height="20" viewBox="0 0 20 20" fill="none" xmlns="http://www.w3.org/2000/svg">
<g id="Group">
<path id="Vector" opacity="0.3" fill-rule="evenodd" clip-rule="evenodd" d="M18.3333 12.5082L18.3541 12.5V16.3215C18.3541 16.7817 17.981 17.1548 17.5208 17.1548C17.2998 17.1548 17.0878 17.067 16.9315 16.9107L15.0208 15H5C3.61929 15 2.5 13.8807 2.5 12.5V5C2.5 3.61929 3.61929 2.5 5 2.5H15.8333C17.214 2.5 18.3333 3.61929 18.3333 5V12.5C18.3333 12.5027 18.3333 12.5055 18.3333 12.5082Z" fill="#9397A1"/>
<path id="Vector_2" opacity="0.3" fill-rule="evenodd" clip-rule="evenodd" d="M6.25 10C5.55964 10 5 9.44036 5 8.75C5 8.05964 5.55964 7.5 6.25 7.5C6.94036 7.5 7.5 8.05964 7.5 8.75C7.5 9.44036 6.94036 10 6.25 10ZM10.4167 10C9.72631 10 9.16667 9.44036 9.16667 8.75C9.16667 8.05964 9.72631 7.5 10.4167 7.5C11.107 7.5 11.6667 8.05964 11.6667 8.75C11.6667 9.44036 11.107 10 10.4167 10ZM14.5833 10C13.893 10 13.3333 9.44036 13.3333 8.75C13.3333 8.05964 13.893 7.5 14.5833 7.5C15.2737 7.5 15.8333 8.05964 15.8333 8.75C15.8333 9.44036 15.2737 10 14.5833 10Z" fill="#9397A1"/>
</g>
</svg>
