<svg width="36" height="36" viewBox="0 0 36 36" fill="none" xmlns="http://www.w3.org/2000/svg">
<g id="Group">
<path id="Vector" fill-rule="evenodd" clip-rule="evenodd" d="M9 3.00049H27C29.4853 3.00049 31.5 5.01521 31.5 7.50049V28.5005C31.5 30.9858 29.4853 33.0005 27 33.0005H9C6.51472 33.0005 4.5 30.9858 4.5 28.5005V7.50049C4.5 5.01521 6.51472 3.00049 9 3.00049ZM18 16.5005C19.6569 16.5005 21 15.1573 21 13.5005C21 11.8436 19.6569 10.5005 18 10.5005C16.3431 10.5005 15 11.8436 15 13.5005C15 15.1573 16.3431 16.5005 18 16.5005ZM10.5005 24.7497C10.4829 24.9935 10.8973 25.5005 11.1063 25.5005C17.1956 25.5005 21.7843 25.5005 24.8722 25.5005C25.4983 25.5005 25.508 24.9337 25.4983 24.7505C25.2541 20.1504 21.976 18.0005 17.9861 18.0005C14.0516 18.0005 10.8235 20.2753 10.5005 24.7497Z" fill="#C5C8CE"/>
</g>
</svg>
