<svg width="16" height="16" viewBox="0 0 16 16" fill="none" xmlns="http://www.w3.org/2000/svg">
<g id="Group">
<path id="Vector" opacity="0.3" d="M7.99967 14.6668C11.6816 14.6668 14.6663 11.6821 14.6663 8.00016C14.6663 4.31826 11.6816 1.3335 7.99967 1.3335C4.31778 1.3335 1.33301 4.31826 1.33301 8.00016C1.33301 11.6821 4.31778 14.6668 7.99967 14.6668Z" fill="#FF5252"/>
<path id="Vector_2" d="M8.66634 5.33317C8.66634 4.96498 8.36786 4.6665 7.99967 4.6665C7.63148 4.6665 7.33301 4.96498 7.33301 5.33317V9.33317C7.33301 9.70136 7.63148 9.99984 7.99967 9.99984C8.36786 9.99984 8.66634 9.70136 8.66634 9.33317V5.33317Z" fill="#FF5252"/>
<path id="Vector_3" d="M8.66634 11.3332C8.66634 10.965 8.36786 10.6665 7.99967 10.6665C7.63148 10.6665 7.33301 10.965 7.33301 11.3332C7.33301 11.7014 7.63148 11.9998 7.99967 11.9998C8.36786 11.9998 8.66634 11.7014 8.66634 11.3332Z" fill="#191919"/>
</g>
</svg>
