<svg width="16" height="16" viewBox="0 0 16 16" fill="none" xmlns="http://www.w3.org/2000/svg">
<g id="Group">
<path id="Vector" opacity="0.3" d="M7.99967 14.6668C11.6816 14.6668 14.6663 11.6821 14.6663 8.00016C14.6663 4.31826 11.6816 1.3335 7.99967 1.3335C4.31778 1.3335 1.33301 4.31826 1.33301 8.00016C1.33301 11.6821 4.31778 14.6668 7.99967 14.6668Z" fill="#0066FF"/>
<path id="Vector_2" d="M11.1793 5.21179C11.4305 4.94262 11.8524 4.92808 12.1216 5.1793C12.3907 5.43052 12.4053 5.85238 12.154 6.12155L7.48738 11.1215C7.24364 11.3827 6.83738 11.4053 6.56615 11.1728L4.23282 9.17284C3.95327 8.93323 3.92089 8.51236 4.16051 8.23281C4.40012 7.95326 4.82099 7.92088 5.10054 8.1605L6.94867 9.74461L11.1793 5.21179Z" fill="#0066FF"/>
</g>
</svg>
