<svg width="24" height="24" viewBox="0 0 24 24" fill="none" xmlns="http://www.w3.org/2000/svg">
<g id="Group">
<path id="Vector" opacity="0.3" fill-rule="evenodd" clip-rule="evenodd" d="M5.5 3.99997H18.5C19.3284 3.99997 20 4.67154 20 5.49997V9.49997C20 10.3284 19.3284 11 18.5 11H5.5C4.67157 11 4 10.3284 4 9.49997V5.49997C4 4.67154 4.67157 3.99997 5.5 3.99997ZM11 5.99997C10.4477 5.99997 10 6.44768 10 6.99997C10 7.55225 10.4477 7.99997 11 7.99997H13C13.5523 7.99997 14 7.55225 14 6.99997C14 6.44768 13.5523 5.99997 13 5.99997H11Z" fill="#FFD817"/>
<path id="Vector_2" fill-rule="evenodd" clip-rule="evenodd" d="M5.5 13H18.5C19.3284 13 20 13.6715 20 14.5V18.5C20 19.3284 19.3284 20 18.5 20H5.5C4.67157 20 4 19.3284 4 18.5V14.5C4 13.6715 4.67157 13 5.5 13ZM11 15C10.4477 15 10 15.4477 10 16C10 16.5523 10.4477 17 11 17H13C13.5523 17 14 16.5523 14 16C14 15.4477 13.5523 15 13 15H11Z" fill="#FFD817"/>
</g>
</svg>
