<svg width="24" height="24" viewBox="0 0 24 24" fill="none" xmlns="http://www.w3.org/2000/svg">
<g id="Group">
<path id="Vector" fill-rule="evenodd" clip-rule="evenodd" d="M13.207 4.00003C13.0722 4.47686 13 4.98002 13 5.50003C13 8.5376 15.4624 11 18.5 11C19.02 11 19.5232 10.9279 20 10.793V17C20 18.6569 18.6569 20 17 20H7C5.34315 20 4 18.6569 4 17V7.00003C4 5.34318 5.34315 4.00003 7 4.00003H13.207Z" fill="#FFD817"/>
<path id="Vector_2" opacity="0.3" d="M18.5 8C19.8807 8 21 6.88071 21 5.5C21 4.11929 19.8807 3 18.5 3C17.1193 3 16 4.11929 16 5.5C16 6.88071 17.1193 8 18.5 8Z" fill="#FFD817"/>
</g>
</svg>
