<svg width="24" height="24" viewBox="0 0 24 24" fill="none" xmlns="http://www.w3.org/2000/svg">
<g id="Group">
<path id="Vector" opacity="0.3" d="M4.875 20.75C4.63542 20.75 4.39583 20.6542 4.20417 20.4625L2.2875 18.5458C1.90417 18.1625 1.90417 17.5875 2.2875 17.2042C2.67083 16.8208 3.29375 16.8208 3.62917 17.2042L4.875 18.45L8.0375 15.2875C8.42083 14.9042 8.99583 14.9042 9.37917 15.2875C9.7625 15.6708 9.7625 16.2458 9.37917 16.6292L5.54583 20.4625C5.35417 20.6542 5.11458 20.75 4.875 20.75Z" fill="#FFD817"/>
<path id="Vector_2" fill-rule="evenodd" clip-rule="evenodd" d="M2 11.865V6C2 4.34315 3.34315 3 5 3H19C20.6569 3 22 4.34315 22 6V15C22 15.0033 22 15.0065 22 15.0098L22.0249 15V19.5858C22.0249 20.1381 21.5772 20.5858 21.0249 20.5858C20.7597 20.5858 20.5054 20.4804 20.3178 20.2929L18.0249 18H12.9836C12.7263 14.091 9.47412 11 5.5 11C4.23591 11 3.04486 11.3127 2 11.865ZM6 7C5.44772 7 5 7.44772 5 8C5 8.55228 5.44772 9 6 9H15C15.5523 9 16 8.55228 16 8C16 7.44772 15.5523 7 15 7H6Z" fill="#FFD817"/>
</g>
</svg>
