<svg width="24" height="24" viewBox="0 0 24 24" fill="none" xmlns="http://www.w3.org/2000/svg">
<g id="Group">
<path id="Vector" fill-rule="evenodd" clip-rule="evenodd" d="M12 21C7.02944 21 3 16.9706 3 12C3 7.02944 7.02944 3 12 3C16.9706 3 21 7.02944 21 12C21 16.9706 16.9706 21 12 21ZM14.1655 7.35484L9.61055 10.3623C9.47922 10.449 9.39637 10.5925 9.38694 10.7496L9.05992 16.1979C9.04337 16.4736 9.25341 16.7105 9.52906 16.727C9.63705 16.7335 9.74423 16.7048 9.83451 16.6452L14.3894 13.6377C14.5208 13.551 14.6036 13.4075 14.6131 13.2504L14.9401 7.80205C14.9566 7.5264 14.7466 7.28954 14.4709 7.27299C14.363 7.26651 14.2558 7.29523 14.1655 7.35484Z" fill="#FFD817"/>
</g>
</svg>
