<svg width="81" height="80" viewBox="0 0 81 80" fill="none" xmlns="http://www.w3.org/2000/svg">
<rect x="0.65625" width="80" height="80" rx="16" fill="#FEF387"/>
<path fill-rule="evenodd" clip-rule="evenodd" d="M28.9184 26.5527C28.208 26.5527 27.5865 26.3184 27.0833 25.791C26.5505 25.293 26.3138 24.6777 26.3138 23.9746C26.3138 23.2715 26.5505 22.6855 27.0833 22.1875C27.5865 21.6895 28.208 21.4258 28.9184 21.4258C29.5992 21.4258 30.2207 21.6895 30.7239 22.1875C31.2271 22.6855 31.4935 23.2715 31.4935 23.9746C31.4935 24.6777 31.2271 25.293 30.7239 25.791C30.2207 26.3184 29.5992 26.5527 28.9184 26.5527ZM31.4935 44.5117V51.5723C31.4935 53.4766 30.7831 55.1172 29.4216 56.4648C28.0305 57.8711 26.3433 58.5742 24.3603 58.5742C22.4364 58.5742 20.7789 57.8711 19.4173 56.4648C17.9966 55.1172 17.2863 53.4766 17.2863 51.5723C17.2863 49.6094 17.9966 47.9394 19.4173 46.5625C20.7789 45.2148 22.4068 44.5117 24.3603 44.5117H31.4935ZM43.2736 37.9785H38.1531V23.9746C38.1531 21.4551 37.2355 19.3164 35.4004 17.5586C33.5949 15.7715 31.4343 14.8633 28.9184 14.8633C26.3729 14.8633 24.1827 15.7715 22.3772 17.5586C20.5717 19.3164 19.6541 21.4551 19.6541 23.9746C19.6541 26.5234 20.5717 28.6914 22.3772 30.4492C24.1827 32.2363 26.3729 33.1445 28.9184 33.1445C29.7768 33.1445 30.6351 33.0273 31.4935 32.793V37.9492L24.3603 37.9199C20.6013 37.9199 17.3751 39.2676 14.6816 41.9336C11.9882 44.5703 10.6562 47.793 10.6562 51.5723C10.6562 55.293 11.9882 58.4863 14.6816 61.1523C17.3751 63.8183 20.6013 65.1367 24.3603 65.1367C28.1784 65.1367 31.4343 63.8183 34.0981 61.1523C36.7915 58.4863 38.1531 55.293 38.1531 51.5723V44.5703L43.244 44.5996C43.7791 44.5996 44.2638 44.49 44.7041 44.2708C44.7518 44.3922 44.8144 44.5082 44.8909 44.616C45.0435 44.831 45.2282 44.9657 45.3662 45.053C45.4863 45.129 45.6298 45.2042 45.7545 45.2695L47.6445 46.2607L46.6919 48.0403L46.6919 48.0403C46.4767 48.4422 46.2863 48.7979 46.1529 49.1055C46.0107 49.433 45.8947 49.7887 45.8882 50.1909C45.8787 50.7797 46.0578 51.3564 46.3997 51.8382C46.6333 52.1674 46.9311 52.3972 47.2346 52.5892C47.5195 52.7695 47.879 52.958 48.285 53.1709L57.3782 57.9396L57.3785 57.9397C57.7844 58.1526 58.1436 58.341 58.4543 58.4731C58.7852 58.6138 59.1446 58.7286 59.5509 58.7351C60.1457 58.7445 60.7283 58.5673 61.2152 58.2288C61.5477 57.9976 61.7799 57.7028 61.9739 57.4024C62.156 57.1204 62.3464 56.7646 62.5615 56.3627L69.8522 42.7422C70.0674 42.3403 70.2578 41.9846 70.3912 41.6771C70.5334 41.3495 70.6494 40.9938 70.6559 40.5916C70.6654 40.0028 70.4863 39.4261 70.1444 38.9443C69.9108 38.6151 69.613 38.3853 69.3095 38.1933C69.0246 38.013 68.6652 37.8246 68.2592 37.6117L68.2591 37.6116L59.166 32.843L59.166 32.8429C58.7599 32.63 58.4006 32.4415 58.0898 32.3094C57.7589 32.1687 57.3995 32.0539 56.9932 32.0474C56.3983 32.038 55.8158 32.2153 55.3289 32.5537C54.9964 32.7849 54.7642 33.0797 54.5702 33.3801C54.3881 33.6621 54.1977 34.0179 53.9826 34.4198L53.03 36.1994L51.1401 35.2082C51.0154 35.1428 50.872 35.0675 50.741 35.0118C50.5905 34.9479 50.3742 34.8722 50.1087 34.868C49.7617 34.8625 49.4219 34.9659 49.1379 35.1633C48.9207 35.3144 48.7846 35.4973 48.6964 35.6338C48.6196 35.7527 48.5437 35.8947 48.4776 36.0182L46.3346 40.0218C46.1754 39.6395 45.9333 39.2928 45.6118 38.9746C44.9607 38.3008 44.1615 37.9785 43.2736 37.9785ZM51.3446 39.3481L49.7638 38.5191L47.6818 42.4087L49.2626 43.2377L51.3446 39.3481ZM58.3829 41.8336L55.3604 47.4803L53.4934 46.5012L56.5159 40.8545L58.3829 41.8336Z" fill="#1E1926"/>
</svg>
