<svg width="18" height="22" viewBox="0 0 18 22" fill="none" xmlns="http://www.w3.org/2000/svg">
<g id="Group 32">
<path id="Path" fill-rule="evenodd" clip-rule="evenodd" d="M1.76483 16.8301C1.34234 16.8301 1.06468 16.3871 1.24678 16.0058C1.80226 14.8429 2.74103 12.8134 2.74103 12.3791C2.74103 10.7083 2.74103 8.06002 2.74103 8.06002C2.74103 4.1242 5.21812 0.933594 9.05229 0.933594C12.8865 0.933594 15.3636 4.1242 15.3636 8.06002C15.3636 8.06002 15.3636 10.6889 15.3636 12.3791C15.3636 12.8003 16.3049 14.8404 16.8601 16.007C17.0414 16.3881 16.7638 16.8301 16.3418 16.8301H1.76483Z" stroke="#252525" stroke-width="1.2" stroke-linecap="round"/>
<path id="Path_2" d="M11.6162 16.8301V18.0266C11.6162 19.3482 10.4683 20.4196 9.05223 20.4196C7.6362 20.4196 6.48828 19.3482 6.48828 18.0266V16.8301" stroke="#252525" stroke-width="1.2" stroke-linecap="round"/>
</g>
</svg>
