<svg width="36" height="37" viewBox="0 0 36 37" fill="none" xmlns="http://www.w3.org/2000/svg">
<g id="HomeMenuIconSending mail">
<g id="Group">
<path id="Vector" fill-rule="evenodd" clip-rule="evenodd" d="M6 24.5H7.5C8.32843 24.5 9 25.1716 9 26C9 26.8284 8.32843 27.5 7.5 27.5H6C5.17157 27.5 4.5 26.8284 4.5 26C4.5 25.1716 5.17157 24.5 6 24.5ZM1.5 17H7.5C8.32843 17 9 17.6716 9 18.5C9 19.3284 8.32843 20 7.5 20H1.5C0.671573 20 0 19.3284 0 18.5C0 17.6716 0.671573 17 1.5 17ZM4.5 9.5H7.5C8.32843 9.5 9 10.1716 9 11C9 11.8284 8.32843 12.5 7.5 12.5H4.5C3.67157 12.5 3 11.8284 3 11C3 10.1716 3.67157 9.5 4.5 9.5Z" fill="#0066FF"/>
<path id="Vector_2" fill-rule="evenodd" clip-rule="evenodd" d="M15 9.5H33C34.6569 9.5 36 10.8431 36 12.5V24.5C36 26.1569 34.6569 27.5 33 27.5H15C13.3431 27.5 12 26.1569 12 24.5V12.5C12 10.8431 13.3431 9.5 15 9.5ZM31.6274 12.6077L24 16.5779L16.3726 12.6077C15.9199 12.3721 15.3552 12.5358 15.1115 12.9735C14.8677 13.4111 15.0371 13.9569 15.4898 14.1925L23.5586 18.3924C23.8342 18.5359 24.1658 18.5359 24.4414 18.3924L32.5102 14.1925C32.9629 13.9569 33.1323 13.4111 32.8885 12.9735C32.6448 12.5358 32.0801 12.3721 31.6274 12.6077Z" fill="#0066FF"/>
</g>
</g>
</svg>
