<svg width="25" height="24" viewBox="0 0 25 24" fill="none" xmlns="http://www.w3.org/2000/svg">
<g id="Group">
<path id="Vector" fill-rule="evenodd" clip-rule="evenodd" d="M4.125 16H5.125C5.67728 16 6.125 16.4477 6.125 17C6.125 17.5523 5.67728 18 5.125 18H4.125C3.57272 18 3.125 17.5523 3.125 17C3.125 16.4477 3.57272 16 4.125 16ZM1.125 11H5.125C5.67728 11 6.125 11.4477 6.125 12C6.125 12.5523 5.67728 13 5.125 13H1.125C0.572715 13 0.125 12.5523 0.125 12C0.125 11.4477 0.572715 11 1.125 11ZM3.125 6H5.125C5.67728 6 6.125 6.44772 6.125 7C6.125 7.55228 5.67728 8 5.125 8H3.125C2.57272 8 2.125 7.55228 2.125 7C2.125 6.44772 2.57272 6 3.125 6Z" fill="#FFF32B"/>
<path id="Vector_2" fill-rule="evenodd" clip-rule="evenodd" d="M10.125 6H22.125C23.2296 6 24.125 6.89543 24.125 8V16C24.125 17.1046 23.2296 18 22.125 18H10.125C9.02043 18 8.125 17.1046 8.125 16V8C8.125 6.89543 9.02043 6 10.125 6ZM21.2099 8.07183L16.125 10.7186L11.0401 8.07183C10.7382 7.91473 10.3618 8.02389 10.1993 8.31565C10.0368 8.6074 10.1497 8.97127 10.4515 9.12837L15.8307 11.9283C16.0144 12.0239 16.2356 12.0239 16.4193 11.9283L21.7985 9.12837C22.1003 8.97127 22.2132 8.6074 22.0507 8.31565C21.8882 8.02389 21.5118 7.91473 21.2099 8.07183Z" fill="#3688FE"/>
</g>
</svg>
