<svg width="87" height="32" viewBox="0 0 87 32" fill="none" xmlns="http://www.w3.org/2000/svg">
<g id="Logo">
<path id="Union" fill-rule="evenodd" clip-rule="evenodd" d="M14.1268 5.71429C14.1268 6.66106 13.3593 7.42857 12.4125 7.42857C11.4657 7.42857 10.6982 6.66106 10.6982 5.71429C10.6982 4.76751 11.4657 4 12.4125 4C13.3593 4 14.1268 4.76751 14.1268 5.71429ZM14.1288 11.1663C13.587 11.3367 13.0105 11.4286 12.4125 11.4286C9.25657 11.4286 6.6982 8.8702 6.6982 5.71429C6.6982 2.55837 9.25657 0 12.4125 0C15.5684 0 18.1268 2.55837 18.1268 5.71429C18.1268 5.7667 18.1261 5.81896 18.1247 5.87103C18.1274 5.91368 18.1287 5.95667 18.1287 6V14.8568H20.4138V7.14323C20.4138 6.03866 21.3093 5.14323 22.4138 5.14323C23.5184 5.14323 24.4138 6.03866 24.4138 7.14323V14.8568H29.2741H33.5588V11.1685C33.0191 11.3375 32.4449 11.4286 31.8495 11.4286C28.6936 11.4286 26.1352 8.8702 26.1352 5.71429C26.1352 2.55837 28.6936 0 31.8495 0C35.0054 0 37.5638 2.55837 37.5638 5.71429C37.5638 5.7975 37.562 5.88031 37.5585 5.96266C37.5587 5.97508 37.5588 5.98753 37.5588 6V14.8568H41.2741H42.9798H47.2645V11.1685C46.7248 11.3375 46.1507 11.4286 45.5552 11.4286C42.3993 11.4286 39.8409 8.8702 39.8409 5.71429C39.8409 2.55837 42.3993 0 45.5552 0C48.7111 0 51.2695 2.55837 51.2695 5.71429C51.2695 5.79751 51.2677 5.88033 51.2642 5.96269C51.2644 5.9751 51.2645 5.98754 51.2645 6V14.8568H53.5571V2C53.5571 0.895433 54.4525 0 55.5571 0C56.6616 0 57.5571 0.895431 57.5571 2V14.8568H63.4879C62.7575 14.5144 62.0732 14.0416 61.4699 13.4383C58.6804 10.6489 58.6804 6.12625 61.4699 3.33679C64.2593 0.547328 68.7819 0.547328 71.5714 3.33679C74.3608 6.12625 74.3608 10.6489 71.5714 13.4383C70.9681 14.0416 70.2837 14.5144 69.5533 14.8568H84.7012C85.8057 14.8568 86.7012 15.7522 86.7012 16.8568C86.7012 17.9613 85.8057 18.8568 84.7012 18.8568H55.596C55.5831 18.857 55.5701 18.8571 55.5571 18.8571L55.5413 18.8571L55.5181 18.8568H54.9798H51.2645V23.1429C51.2645 23.1696 51.264 23.1963 51.263 23.2228C51.2646 23.2914 51.2654 23.3603 51.2654 23.4293C51.2654 28.1632 47.4278 32.0007 42.694 32.0007C39.8934 32.0007 37.4066 30.6576 35.8424 28.5804C34.2783 30.6576 31.7914 32.0007 28.9909 32.0007C24.257 32.0007 20.4194 28.1632 20.4194 23.4293C20.4194 21.7482 20.9034 20.1801 21.7396 18.8568H18.1287V23.1429C18.1287 23.1894 18.1272 23.2356 18.124 23.2814C18.1249 23.3306 18.1253 23.3799 18.1253 23.4293C18.1253 28.1632 14.2877 32.0007 9.55385 32.0007C4.81998 32.0007 0.982422 28.1632 0.982422 23.4293C0.982422 18.6954 4.81998 14.8579 9.55385 14.8579C9.6142 14.8579 9.6744 14.8585 9.73445 14.8597C9.77073 14.8578 9.80726 14.8568 9.84403 14.8568H14.1288V11.1663ZM69.3793 5.86175C67.9846 4.46702 65.7233 4.46702 64.3286 5.86175C62.9338 7.25648 62.9338 9.51779 64.3286 10.9125C65.7233 12.3072 67.9846 12.3072 69.3793 10.9125L70.5779 9.71391H66.4164C65.6275 9.71391 64.9879 9.07432 64.9879 8.28534C64.9879 7.49636 65.6275 6.85677 66.4164 6.85677H70.3743L69.3793 5.86175ZM9.55385 28.0007C12.0786 28.0007 14.1253 25.954 14.1253 23.4293C14.1253 23.3702 14.1242 23.3113 14.1219 23.2527C14.1228 23.2164 14.1233 23.1801 14.1233 23.1436V18.8579H9.83758C9.79088 18.8579 9.74435 18.8586 9.69801 18.8601C9.65014 18.8586 9.60208 18.8579 9.55385 18.8579C7.02912 18.8579 4.98242 20.9046 4.98242 23.4293C4.98242 25.954 7.02912 28.0007 9.55385 28.0007ZM22.4138 4C23.5184 4 24.4138 3.10457 24.4138 2C24.4138 0.895431 23.5184 0 22.4138 0C21.3093 0 20.4138 0.895431 20.4138 2C20.4138 3.10457 21.3093 4 22.4138 4ZM33.5638 5.71429C33.5638 6.66106 32.7963 7.42857 31.8495 7.42857C30.9027 7.42857 30.1352 6.66106 30.1352 5.71429C30.1352 4.76751 30.9027 4 31.8495 4C32.7963 4 33.5638 4.76751 33.5638 5.71429ZM33.5588 18.8579H29.2746C29.2279 18.8579 29.1814 18.8586 29.135 18.8601C29.0871 18.8586 29.0391 18.8579 28.9909 18.8579C26.4661 18.8579 24.4194 20.9046 24.4194 23.4293C24.4194 25.954 26.4661 28.0007 28.9909 28.0007C31.5156 28.0007 33.5623 25.954 33.5623 23.4293C33.5623 23.3702 33.5612 23.3113 33.5589 23.2527L33.5598 23.2074C33.5592 23.186 33.5588 23.1645 33.5588 23.1429V18.8579ZM45.5552 7.42857C46.502 7.42857 47.2695 6.66106 47.2695 5.71429C47.2695 4.76751 46.502 4 45.5552 4C44.6084 4 43.8409 4.76751 43.8409 5.71429C43.8409 6.66106 44.6084 7.42857 45.5552 7.42857ZM47.2654 23.4293C47.2654 25.954 45.2187 28.0007 42.694 28.0007C40.1693 28.0007 38.1226 25.954 38.1226 23.4293C38.1226 20.9046 40.1693 18.8579 42.694 18.8579C42.7422 18.8579 42.7903 18.8586 42.8381 18.8601C42.8845 18.8586 42.931 18.8579 42.9777 18.8579H47.2634V23.1436C47.2634 23.1801 47.263 23.2164 47.2621 23.2527C47.2643 23.3113 47.2654 23.3702 47.2654 23.4293Z" fill="#191919"/>
</g>
</svg>
