<svg width="36" height="37" viewBox="0 0 36 37" fill="none" xmlns="http://www.w3.org/2000/svg">
<g id="HomeMenuIcongiggle-smile">
<g id="Group">
<path id="Vector" fill-rule="evenodd" clip-rule="evenodd" d="M7.5 23L4.5 32.75L14.25 29.75L7.5 23Z" fill="#0066FF"/>
<path id="Vector_2" fill-rule="evenodd" clip-rule="evenodd" d="M18 5.16797C25.3638 5.16797 31.3333 11.1375 31.3333 18.5013C31.3333 25.8651 25.3638 31.8346 18 31.8346C10.6362 31.8346 4.66663 25.8651 4.66663 18.5013C4.66663 11.1375 10.6362 5.16797 18 5.16797ZM10.2239 20.5742C12.2367 23.5935 14.8609 25.168 18 25.168C21.1391 25.168 23.7632 23.5935 25.776 20.5742C26.1845 19.9615 26.0189 19.1337 25.4062 18.7252C24.7935 18.3168 23.9657 18.4823 23.5572 19.095C22.0145 21.4091 20.1942 22.5013 18 22.5013C15.8057 22.5013 13.9854 21.4091 12.4427 19.095C12.0342 18.4823 11.2064 18.3168 10.5937 18.7252C9.98099 19.1337 9.81542 19.9615 10.2239 20.5742Z" fill="#0066FF"/>
</g>
</g>
</svg>
