<svg width="29" height="30" viewBox="0 0 29 30" fill="none" xmlns="http://www.w3.org/2000/svg">
<g id="007.&#235;&#172;&#184;&#236;&#158;&#144;,&#235;&#169;&#148;&#236;&#139;&#156;&#236;&#167;&#128;">
<path id="Vector" d="M26.5 13.7502C26.5 6.84668 20.9035 1.25024 14 1.25024C7.09644 1.25024 1.5 6.84668 1.5 13.7502C1.5 20.6537 7.09644 26.2502 14 26.2502C20.9035 26.2502 26.5 20.6537 26.5 13.7502Z" fill="#1E1926"/>
<path id="Vector_2" d="M5.25 22.6758L1.5 26.2508H14V23.7508L5.25 22.6758Z" fill="#1E1926"/>
<path id="Vector_3" d="M17.125 15H8.375C8.02983 15 7.75 15.2799 7.75 15.625V16.875C7.75 17.2201 8.02983 17.5 8.375 17.5H17.125C17.4701 17.5 17.75 17.2201 17.75 16.875V15.625C17.75 15.2799 17.4701 15 17.125 15Z" fill="white"/>
<path id="Vector_4" d="M19.625 9.99976H8.375C8.02983 9.99976 7.75 10.2796 7.75 10.6248V11.8748C7.75 12.2199 8.02983 12.4998 8.375 12.4998H19.625C19.9701 12.4998 20.25 12.2199 20.25 11.8748V10.6248C20.25 10.2796 19.9701 9.99976 19.625 9.99976Z" fill="white"/>
</g>
</svg>
