<svg width="25" height="24" viewBox="0 0 25 24" fill="none" xmlns="http://www.w3.org/2000/svg">
<g id="Group">
<path id="Vector" fill-rule="evenodd" clip-rule="evenodd" d="M5.875 15L3.875 21.5L10.375 19.5L5.875 15Z" fill="black"/>
<path id="Vector_2" fill-rule="evenodd" clip-rule="evenodd" d="M12.875 2C18.3978 2 22.875 6.47715 22.875 12C22.875 17.5228 18.3978 22 12.875 22C7.35215 22 2.875 17.5228 2.875 12C2.875 6.47715 7.35215 2 12.875 2ZM7.04295 13.5547C8.55258 15.8191 10.5207 17 12.875 17C15.2293 17 17.1974 15.8191 18.7071 13.5547C19.0134 13.0952 18.8892 12.4743 18.4297 12.168C17.9702 11.8616 17.3493 11.9858 17.043 12.4453C15.8859 14.1809 14.5207 15 12.875 15C11.2293 15 9.86409 14.1809 8.70705 12.4453C8.4007 11.9858 7.77983 11.8616 7.3203 12.168C6.86077 12.4743 6.7366 13.0952 7.04295 13.5547Z" fill="#FFF32B"/>
</g>
</svg>
