<svg width="25" height="24" viewBox="0 0 25 24" fill="none" xmlns="http://www.w3.org/2000/svg">
<g id="Group">
<path id="Vector" fill-rule="evenodd" clip-rule="evenodd" d="M8.375 3V3.5C8.375 4.32843 9.04657 5 9.875 5H14.875C15.7034 5 16.375 4.32843 16.375 3.5V3H18.375C19.4796 3 20.375 3.89543 20.375 5V21C20.375 22.1046 19.4796 23 18.375 23H6.375C5.27043 23 4.375 22.1046 4.375 21V5C4.375 3.89543 5.27043 3 6.375 3H8.375Z" fill="#FEF387"/>
<path id="Vector_2" fill-rule="evenodd" clip-rule="evenodd" d="M11.375 2C11.375 1.44772 11.8227 1 12.375 1C12.9273 1 13.375 1.44772 13.375 2H14.875C15.1511 2 15.375 2.22386 15.375 2.5V3.5C15.375 3.77614 15.1511 4 14.875 4H9.875C9.59886 4 9.375 3.77614 9.375 3.5V2.5C9.375 2.22386 9.59886 2 9.875 2H11.375Z" fill="black"/>
<path id="Vector_3" d="M16.375 9H11.375C10.8227 9 10.375 9.44772 10.375 10C10.375 10.5523 10.8227 11 11.375 11H16.375C16.9273 11 17.375 10.5523 17.375 10C17.375 9.44772 16.9273 9 16.375 9Z" fill="#3688FE"/>
<path id="Vector_4" d="M9.375 10C9.375 9.44772 8.92728 9 8.375 9C7.82272 9 7.375 9.44772 7.375 10C7.375 10.5523 7.82272 11 8.375 11C8.92728 11 9.375 10.5523 9.375 10Z" fill="#3688FE"/>
<path id="Vector_5" d="M9.375 14C9.375 13.4477 8.92728 13 8.375 13C7.82272 13 7.375 13.4477 7.375 14C7.375 14.5523 7.82272 15 8.375 15C8.92728 15 9.375 14.5523 9.375 14Z" fill="#3688FE"/>
<path id="Vector_6" d="M16.375 13H11.375C10.8227 13 10.375 13.4477 10.375 14C10.375 14.5523 10.8227 15 11.375 15H16.375C16.9273 15 17.375 14.5523 17.375 14C17.375 13.4477 16.9273 13 16.375 13Z" fill="#3688FE"/>
<path id="Vector_7" d="M9.375 18C9.375 17.4477 8.92728 17 8.375 17C7.82272 17 7.375 17.4477 7.375 18C7.375 18.5523 7.82272 19 8.375 19C8.92728 19 9.375 18.5523 9.375 18Z" fill="#3688FE"/>
<path id="Vector_8" d="M16.375 17H11.375C10.8227 17 10.375 17.4477 10.375 18C10.375 18.5523 10.8227 19 11.375 19H16.375C16.9273 19 17.375 18.5523 17.375 18C17.375 17.4477 16.9273 17 16.375 17Z" fill="#3688FE"/>
</g>
</svg>
