<svg width="37" height="37" viewBox="0 0 37 37" fill="none" xmlns="http://www.w3.org/2000/svg">
<g id="HomeMenuIcon&#236;&#157;&#180;&#235;&#160;&#165;&#236;&#132;&#156;">
<g id="Clipboard-list">
<g id="Group">
<path id="Vector" fill-rule="evenodd" clip-rule="evenodd" d="M12.6661 5V5.75C12.6661 6.99264 13.6735 8 14.9161 8H22.4161C23.6588 8 24.6661 6.99264 24.6661 5.75V5H27.6661C29.323 5 30.6661 6.34315 30.6661 8V32C30.6661 33.6569 29.323 35 27.6661 35H9.66614C8.00928 35 6.66614 33.6569 6.66614 32V8C6.66614 6.34315 8.00928 5 9.66614 5H12.6661Z" fill="#D8DAE3"/>
<path id="Vector_2" fill-rule="evenodd" clip-rule="evenodd" d="M17.1666 3.5C17.1666 2.67157 17.8382 2 18.6666 2C19.4951 2 20.1666 2.67157 20.1666 3.5H22.4166C22.8308 3.5 23.1666 3.83579 23.1666 4.25V5.75C23.1666 6.16421 22.8308 6.5 22.4166 6.5H14.9166C14.5024 6.5 14.1666 6.16421 14.1666 5.75V4.25C14.1666 3.83579 14.5024 3.5 14.9166 3.5H17.1666Z" fill="#0066FF"/>
<path id="Vector_3" d="M24.6661 14H17.1661C16.3377 14 15.6661 14.6716 15.6661 15.5C15.6661 16.3284 16.3377 17 17.1661 17H24.6661C25.4946 17 26.1661 16.3284 26.1661 15.5C26.1661 14.6716 25.4946 14 24.6661 14Z" fill="#8F919D"/>
<path id="Vector_4" d="M14.1661 15.5C14.1661 14.6716 13.4946 14 12.6661 14C11.8377 14 11.1661 14.6716 11.1661 15.5C11.1661 16.3284 11.8377 17 12.6661 17C13.4946 17 14.1661 16.3284 14.1661 15.5Z" fill="#8F919D"/>
<path id="Vector_5" d="M14.1661 21.5C14.1661 20.6716 13.4946 20 12.6661 20C11.8377 20 11.1661 20.6716 11.1661 21.5C11.1661 22.3284 11.8377 23 12.6661 23C13.4946 23 14.1661 22.3284 14.1661 21.5Z" fill="#8F919D"/>
<path id="Vector_6" d="M24.6661 20H17.1661C16.3377 20 15.6661 20.6716 15.6661 21.5C15.6661 22.3284 16.3377 23 17.1661 23H24.6661C25.4946 23 26.1661 22.3284 26.1661 21.5C26.1661 20.6716 25.4946 20 24.6661 20Z" fill="#8F919D"/>
<path id="Vector_7" d="M14.1661 27.5C14.1661 26.6716 13.4946 26 12.6661 26C11.8377 26 11.1661 26.6716 11.1661 27.5C11.1661 28.3284 11.8377 29 12.6661 29C13.4946 29 14.1661 28.3284 14.1661 27.5Z" fill="#8F919D"/>
<path id="Vector_8" d="M24.6661 26H17.1661C16.3377 26 15.6661 26.6716 15.6661 27.5C15.6661 28.3284 16.3377 29 17.1661 29H24.6661C25.4946 29 26.1661 28.3284 26.1661 27.5C26.1661 26.6716 25.4946 26 24.6661 26Z" fill="#8F919D"/>
</g>
</g>
</g>
</svg>
