<svg width="37" height="37" viewBox="0 0 37 37" fill="none" xmlns="http://www.w3.org/2000/svg">
<g id="HomeMenuIconFile-done">
<g id="Group">
<path id="Vector" d="M9.11909 3.5H20.938C21.47 3.5 21.9848 3.68853 22.391 4.03211L29.5364 10.0759C30.0419 10.5034 30.3334 11.1318 30.3334 11.7938V30.625C30.3334 33.3108 30.3027 33.5 27.5477 33.5H9.11909C6.36405 33.5 6.33337 33.3108 6.33337 30.625V6.375C6.33337 3.68919 6.36405 3.5 9.11909 3.5ZM16.6459 24.125C17.0052 24.125 17.3646 23.9813 17.6521 23.6938L23.4021 17.9438C23.9771 17.3688 23.9771 16.5063 23.4021 15.9313C22.8271 15.3563 21.9646 15.3563 21.3896 15.9313L16.6459 20.675L14.7771 18.8063C14.274 18.2313 13.3396 18.2313 12.7646 18.8063C12.1896 19.3813 12.1896 20.2438 12.7646 20.8188L15.6396 23.6938C15.9271 23.9813 16.2865 24.125 16.6459 24.125Z" fill="#D8DAE3"/>
<path id="Vector_2" fill-rule="evenodd" clip-rule="evenodd" d="M16.6459 24.125C16.2865 24.125 15.9271 23.9812 15.6396 23.6937L12.7646 20.8188C12.1896 20.2438 12.1896 19.3812 12.7646 18.8062C13.3396 18.2312 14.274 18.2312 14.7771 18.8062L16.6459 20.675L21.3896 15.9313C21.9646 15.3562 22.8271 15.3562 23.4021 15.9313C23.9771 16.5063 23.9771 17.3687 23.4021 17.9437L17.6521 23.6937C17.3646 23.9812 17.0052 24.125 16.6459 24.125Z" fill="#8F919D"/>
</g>
</g>
</svg>
