<svg width="25" height="24" viewBox="0 0 25 24" fill="none" xmlns="http://www.w3.org/2000/svg">
<g id="Group">
<path id="Vector" d="M6.48214 2H14.3614C14.7161 2 15.0593 2.12568 15.3301 2.35474L20.0937 6.38394C20.4307 6.66895 20.625 7.08788 20.625 7.5292V20.0833C20.625 21.8739 20.6046 22 18.7679 22H6.48214C4.64545 22 4.625 21.8739 4.625 20.0833V3.91667C4.625 2.12612 4.64545 2 6.48214 2ZM11.5 15.75C11.7396 15.75 11.9792 15.6542 12.1708 15.4625L16.0042 11.6292C16.3875 11.2458 16.3875 10.6708 16.0042 10.2875C15.6208 9.90417 15.0458 9.90417 14.6625 10.2875L11.5 13.45L10.2542 12.2042C9.91875 11.8208 9.29583 11.8208 8.9125 12.2042C8.52917 12.5875 8.52917 13.1625 8.9125 13.5458L10.8292 15.4625C11.0208 15.6542 11.2604 15.75 11.5 15.75Z" fill="#F4F4F9"/>
<path id="Vector_2" fill-rule="evenodd" clip-rule="evenodd" d="M11.5 15.75C11.2604 15.75 11.0208 15.6542 10.8292 15.4625L8.9125 13.5458C8.52917 13.1625 8.52917 12.5875 8.9125 12.2042C9.29583 11.8208 9.91875 11.8208 10.2542 12.2042L11.5 13.45L14.6625 10.2875C15.0458 9.90417 15.6208 9.90417 16.0042 10.2875C16.3875 10.6708 16.3875 11.2458 16.0042 11.6292L12.1708 15.4625C11.9792 15.6542 11.7396 15.75 11.5 15.75Z" fill="#3688FE"/>
</g>
</svg>
