<svg width="15" height="14" viewBox="0 0 20 20" fill="none" xmlns="http://www.w3.org/2000/svg">
<g id="svg1743308233_691" clip-path="url(#clip0_1230_1620)">
<path id="Vector" d="M5.12492 14.6415C4.82563 14.3423 4.76087 13.913 4.9817 13.6921L12.9345 5.73937L7.44395 5.7098C7.08467 5.70804 6.70408 5.40456 6.59851 5.02559C6.48942 4.65012 6.69427 4.35026 7.05355 4.35202L14.4971 4.38578C14.7798 4.38804 15.0829 4.57904 15.2454 4.85359C15.2668 4.88914 15.2849 4.92813 15.3028 4.96717C15.3461 5.06645 15.3693 5.16676 15.3677 5.26337L15.4109 12.7164C15.4127 13.0756 15.1128 13.2805 14.7374 13.1715C14.3619 13.0623 14.0549 12.6853 14.0531 12.326L14.0188 6.83072L6.06255 14.787C5.84173 15.0078 5.41244 14.9431 5.11315 14.6438L5.12492 14.6415Z" fill="white"/>
</g>
<defs>
<clipPath id="clip0_1230_1620">
<rect width="15" height="13" fill="white" transform="translate(0.203125 10.707) rotate(-45)"/>
</clipPath>
</defs>
</svg>
