<svg width="12" height="12" viewBox="0 0 12 12" fill="none" xmlns="http://www.w3.org/2000/svg">
<g id="Shape">
<path id="Vector" d="M6.00079 1.17578C6.24932 1.17578 6.45079 1.37725 6.45079 1.62578V5.55078H10.3758C10.6243 5.55078 10.8258 5.75225 10.8258 6.00078C10.8258 6.24931 10.6243 6.45078 10.3758 6.45078H6.45079V10.3758C6.45079 10.6243 6.24932 10.8258 6.00079 10.8258C5.75226 10.8258 5.55079 10.6243 5.55079 10.3758V6.45078H1.62578C1.37725 6.45078 1.17578 6.24931 1.17578 6.00078C1.17578 5.75225 1.37725 5.55078 1.62578 5.55078H5.55079V1.62578C5.55079 1.37725 5.75226 1.17578 6.00079 1.17578Z" fill="#191919"/>
</g>
</svg>
