<svg width="18" height="18" viewBox="0 0 18 18" fill="none" xmlns="http://www.w3.org/2000/svg">
<g id="Group">
<path id="Vector" d="M5.00195 6.44336V15.4711C5.00195 16.0694 5.48698 16.5545 6.08529 16.5545H12.5853C13.1836 16.5545 13.6686 16.0694 13.6686 15.4711V6.44336H5.00195Z" fill="#9397A1"/>
<path id="Vector_2" opacity="0.3" fill-rule="evenodd" clip-rule="evenodd" d="M10.7793 3.91536V3.55425C10.7793 3.15538 10.4559 2.83203 10.0571 2.83203H8.61263C8.21376 2.83203 7.89041 3.15538 7.89041 3.55425V3.91536H4.64041C4.44097 3.91536 4.2793 4.07704 4.2793 4.27648V4.63759C4.2793 4.83702 4.44097 4.9987 4.64041 4.9987H14.0293C14.2287 4.9987 14.3904 4.83702 14.3904 4.63759V4.27648C14.3904 4.07704 14.2287 3.91536 14.0293 3.91536H10.7793Z" fill="#9397A1"/>
</g>
</svg>
