<svg xmlns="http://www.w3.org/2000/svg" width="24" height="24" viewBox="0 0 24 24" fill="none">
  <path d="M20.8241 9.05906V15.2843H20.0241V9.56107V9.3946L19.8772 9.47279L17.9542 10.4958L17.9011 10.524V10.5841V15.3709L12.0011 18.578L6.10113 15.3709V10.5841V10.5245L6.04878 10.4962L3.28781 8.99949L12.0011 4.26712L20.8241 9.05906ZM11.9535 12.7875L12.0011 12.8133L12.0488 12.7875L18.8795 9.0875L19.0418 8.99957L18.8795 8.91164L12.0488 5.21164L12.0011 5.18584L11.9535 5.21164L5.12275 8.91164L4.96042 8.99957L5.12275 9.0875L11.9535 12.7875ZM11.9536 17.6396L12.0011 17.6652L12.0486 17.6396L17.0486 14.9396L17.1011 14.9112V14.8516V11.1341V10.9662L16.9535 11.0461L12.0011 13.7283L7.04875 11.0461L6.90113 10.9662V11.1341V14.8516V14.9112L6.95361 14.9396L11.9536 17.6396Z" fill="#1E1926" stroke="#1E1926" stroke-width="0.2"/>
</svg>