<svg xmlns="http://www.w3.org/2000/svg" width="18" height="18" viewBox="0 0 18 18" fill="none">
  <path d="M16.4587 14.9139L16.4339 14.8503H16.3656H11.1696H11.1012L11.0764 14.9139L9.91075 17.9003H9.04549L13.324 7.10028H14.2111L18.4896 17.9003H17.6244L16.4587 14.9139ZM5.27691 9.5631L5.34657 9.49317L5.27755 9.42261C4.71241 8.84475 4.14861 8.13205 3.58643 7.28355C3.06071 6.4897 2.66419 5.76204 2.39541 5.10028H3.26383C3.5106 5.65375 3.87387 6.28288 4.35208 6.9872L4.35208 6.98721C4.84824 7.71788 5.3448 8.34051 5.84195 8.85432L5.91316 8.92791L5.98504 8.85497C6.86049 7.96662 7.63759 6.99164 8.31631 5.93015L8.23206 5.87628L8.31632 5.93014C8.99487 4.86876 9.4494 3.90027 9.67587 3.02534L9.70824 2.90028H9.57906H-0.517187V2.10028H5.49831H5.59831V2.00028V0.869531H6.39831V2.00028V2.10028H6.49831H12.5138V2.90028H10.6176H10.5421L10.5214 2.97283C10.2258 4.00842 9.72099 5.11493 9.00511 6.29259L9.00511 6.2926C8.28988 7.46944 7.47172 8.51618 6.55076 9.43317L6.48069 9.50293L6.54966 9.57378L9.04023 12.1324L8.73281 12.956L5.98544 10.1362L5.91464 10.0636L5.843 10.1354L1.01747 14.9743L0.451096 14.4079L5.27691 9.5631ZM11.4129 14.0103L11.3598 14.1465H11.5061H16.0291H16.1753L16.1223 14.0103L13.8608 8.19852L13.7676 7.95902L13.6744 8.19852L11.4129 14.0103Z" fill="#1E1926" stroke="#1E1926" stroke-width="0.2"/>
</svg>