<svg xmlns="http://www.w3.org/2000/svg" width="18" height="18" viewBox="0 0 18 18" fill="none">
  <path d="M2.37931 15.8851C1.98084 15.8851 1.65134 15.7548 1.3908 15.4943C1.13027 15.2337 1 14.9042 1 14.5057V5.86207C1 5.4636 1.13027 5.1341 1.3908 4.87356C1.65134 4.61303 1.98084 4.48276 2.37931 4.48276H6.51724V3.37931C6.51724 2.98084 6.64751 2.65134 6.90805 2.3908C7.16858 2.13027 7.49808 2 7.89655 2H10.1034C10.5019 2 10.8314 2.13027 11.092 2.3908C11.3525 2.65134 11.4828 2.98084 11.4828 3.37931V4.48276H15.6207C16.0192 4.48276 16.3487 4.61303 16.6092 4.87356C16.8697 5.1341 17 5.4636 17 5.86207V14.5057C17 14.9042 16.8697 15.2337 16.6092 15.4943C16.3487 15.7548 16.0192 15.8851 15.6207 15.8851H2.37931ZM2.37931 15.2414H15.6207C15.8046 15.2414 15.9732 15.1648 16.1264 15.0115C16.2797 14.8582 16.3563 14.6897 16.3563 14.5057V5.86207C16.3563 5.67816 16.2797 5.50958 16.1264 5.35632C15.9732 5.20307 15.8046 5.12644 15.6207 5.12644H2.37931C2.1954 5.12644 2.02682 5.20307 1.87356 5.35632C1.72031 5.50958 1.64368 5.67816 1.64368 5.86207V14.5057C1.64368 14.6897 1.72031 14.8582 1.87356 15.0115C2.02682 15.1648 2.1954 15.2414 2.37931 15.2414ZM7.16092 4.48276H10.8391V3.37931C10.8391 3.1954 10.7625 3.02682 10.6092 2.87356C10.4559 2.72031 10.2874 2.64368 10.1034 2.64368H7.89655C7.71264 2.64368 7.54406 2.72031 7.3908 2.87356C7.23755 3.02682 7.16092 3.1954 7.16092 3.37931V4.48276Z" fill="#1E1926"/>
  <path d="M1.64368 15.2414V5.12644M2.37931 15.8851C1.98084 15.8851 1.65134 15.7548 1.3908 15.4943C1.13027 15.2337 1 14.9042 1 14.5057V5.86207C1 5.4636 1.13027 5.1341 1.3908 4.87356C1.65134 4.61303 1.98084 4.48276 2.37931 4.48276H6.51724V3.37931C6.51724 2.98084 6.64751 2.65134 6.90805 2.3908C7.16858 2.13027 7.49808 2 7.89655 2H10.1034C10.5019 2 10.8314 2.13027 11.092 2.3908C11.3525 2.65134 11.4828 2.98084 11.4828 3.37931V4.48276H15.6207C16.0192 4.48276 16.3487 4.61303 16.6092 4.87356C16.8697 5.1341 17 5.4636 17 5.86207V14.5057C17 14.9042 16.8697 15.2337 16.6092 15.4943C16.3487 15.7548 16.0192 15.8851 15.6207 15.8851H2.37931ZM2.37931 15.2414H15.6207C15.8046 15.2414 15.9732 15.1648 16.1264 15.0115C16.2797 14.8582 16.3563 14.6897 16.3563 14.5057V5.86207C16.3563 5.67816 16.2797 5.50958 16.1264 5.35632C15.9732 5.20307 15.8046 5.12644 15.6207 5.12644H2.37931C2.1954 5.12644 2.02682 5.20307 1.87356 5.35632C1.72031 5.50958 1.64368 5.67816 1.64368 5.86207V14.5057C1.64368 14.6897 1.72031 14.8582 1.87356 15.0115C2.02682 15.1648 2.1954 15.2414 2.37931 15.2414ZM7.16092 4.48276H10.8391V3.37931C10.8391 3.1954 10.7625 3.02682 10.6092 2.87356C10.4559 2.72031 10.2874 2.64368 10.1034 2.64368H7.89655C7.71264 2.64368 7.54406 2.72031 7.3908 2.87356C7.23755 3.02682 7.16092 3.1954 7.16092 3.37931V4.48276Z" stroke="black" stroke-width="0.3"/>
</svg>