<svg xmlns="http://www.w3.org/2000/svg" width="18" height="18" viewBox="0 0 18 18" fill="none">
  <path d="M9.00244 15.75C8.06906 15.75 7.1915 15.5729 6.36975 15.2186C5.54813 14.8644 4.83338 14.3836 4.2255 13.7764C3.61763 13.1691 3.13644 12.455 2.78194 11.634C2.42731 10.8131 2.25 9.93594 2.25 9.00244C2.25 8.06906 2.42712 7.1915 2.78137 6.36975C3.13562 5.54812 3.61637 4.83337 4.22362 4.2255C4.83087 3.61762 5.545 3.13644 6.366 2.78194C7.18687 2.42731 8.06406 2.25 8.99756 2.25C9.93094 2.25 10.8085 2.42713 11.6303 2.78138C12.4519 3.13563 13.1666 3.61638 13.7745 4.22363C14.3824 4.83088 14.8636 5.545 15.2181 6.366C15.5727 7.18688 15.75 8.06406 15.75 8.99756C15.75 9.93094 15.5729 10.8085 15.2186 11.6303C14.8644 12.4519 14.3836 13.1666 13.7764 13.7745C13.1691 14.3824 12.455 14.8636 11.634 15.2181C10.8131 15.5727 9.93594 15.75 9.00244 15.75ZM9 15C10.675 15 12.0938 14.4188 13.2563 13.2563C14.4188 12.0938 15 10.675 15 9C15 8.9125 14.9993 8.82425 14.9978 8.73525C14.9964 8.64638 14.9909 8.56106 14.9813 8.47931C14.9476 8.81294 14.8149 9.08888 14.5832 9.30713C14.3514 9.5255 14.0673 9.63469 13.7308 9.63469H11.8269C11.4779 9.63469 11.1791 9.51056 10.9305 9.26231C10.682 9.01419 10.5578 8.71588 10.5578 8.36738V7.73381H8.01919V6.4665C8.01919 6.118 8.1435 5.8185 8.39212 5.568C8.64062 5.3175 8.93938 5.19225 9.28838 5.19225H9.92306V4.61531C9.92306 4.25094 10.0421 3.96419 10.2801 3.75506C10.5181 3.54594 10.8024 3.4255 11.1332 3.39375C10.7967 3.264 10.4518 3.16594 10.0986 3.09956C9.74531 3.03319 9.37913 3 9 3C7.325 3 5.90625 3.58125 4.74375 4.74375C3.58125 5.90625 3 7.325 3 9V9.21638C3 9.28363 3.00481 9.35575 3.01444 9.43275H6.375C7.08463 9.43275 7.68512 9.67838 8.1765 10.1696C8.66775 10.661 8.91338 11.2593 8.91338 11.9646V12.6058H7.00969V14.6539C7.31731 14.7644 7.63869 14.8497 7.97381 14.9098C8.30894 14.9699 8.651 15 9 15Z" fill="#222222"/>
</svg>