<svg xmlns="http://www.w3.org/2000/svg" width="72" height="72" viewBox="0 0 72 72" fill="none">
  <g opacity="0.2">
    <mask id="path-1-inside-1_1401_54918" fill="white">
      <path d="M72 36C72 55.8823 55.8823 72 36 72C16.1177 72 0 55.8823 0 36C0 16.1177 16.1177 0 36 0C55.8823 0 72 16.1177 72 36ZM4.68 36C4.68 53.2976 18.7024 67.32 36 67.32C53.2976 67.32 67.32 53.2976 67.32 36C67.32 18.7024 53.2976 4.68 36 4.68C18.7024 4.68 4.68 18.7024 4.68 36Z"/>
    </mask>
    <path d="M72 36C72 55.8823 55.8823 72 36 72C16.1177 72 0 55.8823 0 36C0 16.1177 16.1177 0 36 0C55.8823 0 72 16.1177 72 36ZM4.68 36C4.68 53.2976 18.7024 67.32 36 67.32C53.2976 67.32 67.32 53.2976 67.32 36C67.32 18.7024 53.2976 4.68 36 4.68C18.7024 4.68 4.68 18.7024 4.68 36Z" stroke="#656565" stroke-width="32" stroke-linecap="round" mask="url(#path-1-inside-1_1401_54918)"/>
  </g>
  <mask id="path-2-inside-2_1401_54918" fill="white">
    <path d="M2.34 36C1.04765 36 -0.00792346 34.9511 0.0760085 33.6615C0.516906 26.8871 2.86639 20.3576 6.87539 14.8397C10.8844 9.32182 16.3682 5.06962 22.6748 2.55689C23.8754 2.07855 25.1991 2.75834 25.5985 3.98744V3.98744C25.9978 5.21653 25.3209 6.52847 24.1251 7.01845C18.7569 9.21795 14.0895 12.8724 10.6616 17.5906C7.23366 22.3087 5.20034 27.8769 4.76736 33.6621C4.6709 34.9508 3.63235 36 2.34 36V36Z"/>
  </mask>
  <path d="M2.34 36C1.04765 36 -0.00792346 34.9511 0.0760085 33.6615C0.516906 26.8871 2.86639 20.3576 6.87539 14.8397C10.8844 9.32182 16.3682 5.06962 22.6748 2.55689C23.8754 2.07855 25.1991 2.75834 25.5985 3.98744V3.98744C25.9978 5.21653 25.3209 6.52847 24.1251 7.01845C18.7569 9.21795 14.0895 12.8724 10.6616 17.5906C7.23366 22.3087 5.20034 27.8769 4.76736 33.6621C4.6709 34.9508 3.63235 36 2.34 36V36Z" stroke="#1E1926" stroke-width="32" stroke-linecap="round" mask="url(#path-2-inside-2_1401_54918)"/>
</svg>