<svg xmlns="http://www.w3.org/2000/svg" width="18" height="18" viewBox="0 0 18 18" fill="none">
  <path d="M15.0788 9.35H6.34225V8.65H15.0788H15.4409L15.1848 8.39393L12.9704 6.17947L13.4628 5.67493L16.7879 9L13.4628 12.3251L12.9704 11.8205L15.1848 9.60607L15.4409 9.35H15.0788ZM2.6155 16.85C2.19249 16.85 1.84707 16.7099 1.56857 16.4314C1.29006 16.1529 1.15 15.8075 1.15 15.3845V2.6155C1.15 2.19249 1.29006 1.84707 1.56857 1.56857C1.84707 1.29006 2.19249 1.15 2.6155 1.15H8.86925V1.85H2.6155C2.41473 1.85 2.23712 1.93525 2.08618 2.08618C1.93525 2.23712 1.85 2.41473 1.85 2.6155V15.3845C1.85 15.5853 1.93525 15.7629 2.08618 15.9138C2.23712 16.0648 2.41473 16.15 2.6155 16.15H8.86925V16.85H2.6155Z" fill="#1E1926" stroke="#1E1926" stroke-width="0.3"/>
</svg>