<svg xmlns="http://www.w3.org/2000/svg" width="20" height="20" viewBox="0 0 20 20" fill="none">
  <path d="M3.37931 16.8851C2.98084 16.8851 2.65134 16.7548 2.3908 16.4943C2.13027 16.2337 2 15.9042 2 15.5057V6.86207C2 6.4636 2.13027 6.1341 2.3908 5.87356C2.65134 5.61303 2.98084 5.48276 3.37931 5.48276H7.51724V4.37931C7.51724 3.98084 7.64751 3.65134 7.90805 3.3908C8.16858 3.13027 8.49808 3 8.89655 3H11.1034C11.5019 3 11.8314 3.13027 12.092 3.3908C12.3525 3.65134 12.4828 3.98084 12.4828 4.37931V5.48276H16.6207C17.0192 5.48276 17.3487 5.61303 17.6092 5.87356C17.8697 6.1341 18 6.4636 18 6.86207V15.5057C18 15.9042 17.8697 16.2337 17.6092 16.4943C17.3487 16.7548 17.0192 16.8851 16.6207 16.8851H3.37931ZM3.37931 16.2414H16.6207C16.8046 16.2414 16.9732 16.1648 17.1264 16.0115C17.2797 15.8582 17.3563 15.6897 17.3563 15.5057V6.86207C17.3563 6.67816 17.2797 6.50958 17.1264 6.35632C16.9732 6.20307 16.8046 6.12644 16.6207 6.12644H3.37931C3.1954 6.12644 3.02682 6.20307 2.87356 6.35632C2.72031 6.50958 2.64368 6.67816 2.64368 6.86207V15.5057C2.64368 15.6897 2.72031 15.8582 2.87356 16.0115C3.02682 16.1648 3.1954 16.2414 3.37931 16.2414ZM8.16092 5.48276H11.8391V4.37931C11.8391 4.1954 11.7625 4.02682 11.6092 3.87356C11.4559 3.72031 11.2874 3.64368 11.1034 3.64368H8.89655C8.71264 3.64368 8.54406 3.72031 8.3908 3.87356C8.23755 4.02682 8.16092 4.1954 8.16092 4.37931V5.48276Z" fill="#1E1926"/>
  <path d="M2.64368 16.2414V6.12644M3.37931 16.8851C2.98084 16.8851 2.65134 16.7548 2.3908 16.4943C2.13027 16.2337 2 15.9042 2 15.5057V6.86207C2 6.4636 2.13027 6.1341 2.3908 5.87356C2.65134 5.61303 2.98084 5.48276 3.37931 5.48276H7.51724V4.37931C7.51724 3.98084 7.64751 3.65134 7.90805 3.3908C8.16858 3.13027 8.49808 3 8.89655 3H11.1034C11.5019 3 11.8314 3.13027 12.092 3.3908C12.3525 3.65134 12.4828 3.98084 12.4828 4.37931V5.48276H16.6207C17.0192 5.48276 17.3487 5.61303 17.6092 5.87356C17.8697 6.1341 18 6.4636 18 6.86207V15.5057C18 15.9042 17.8697 16.2337 17.6092 16.4943C17.3487 16.7548 17.0192 16.8851 16.6207 16.8851H3.37931ZM3.37931 16.2414H16.6207C16.8046 16.2414 16.9732 16.1648 17.1264 16.0115C17.2797 15.8582 17.3563 15.6897 17.3563 15.5057V6.86207C17.3563 6.67816 17.2797 6.50958 17.1264 6.35632C16.9732 6.20307 16.8046 6.12644 16.6207 6.12644H3.37931C3.1954 6.12644 3.02682 6.20307 2.87356 6.35632C2.72031 6.50958 2.64368 6.67816 2.64368 6.86207V15.5057C2.64368 15.6897 2.72031 15.8582 2.87356 16.0115C3.02682 16.1648 3.1954 16.2414 3.37931 16.2414ZM8.16092 5.48276H11.8391V4.37931C11.8391 4.1954 11.7625 4.02682 11.6092 3.87356C11.4559 3.72031 11.2874 3.64368 11.1034 3.64368H8.89655C8.71264 3.64368 8.54406 3.72031 8.3908 3.87356C8.23755 4.02682 8.16092 4.1954 8.16092 4.37931V5.48276Z" stroke="black" stroke-width="0.3"/>
</svg>