<svg xmlns="http://www.w3.org/2000/svg" width="14" height="17" viewBox="0 0 14 17" fill="none">
  <path fill-rule="evenodd" clip-rule="evenodd" d="M1.72187 13.0013C1.29938 13.0013 1.02187 12.5576 1.20249 12.1757C1.61032 11.3133 2.18528 10.046 2.18528 9.75581C2.18528 8.53757 2.18528 6.60651 2.18528 6.60651C2.18528 3.73664 3.99148 1.41016 6.78724 1.41016C9.58299 1.41016 11.3892 3.73664 11.3892 6.60651C11.3892 6.60651 11.3892 8.52342 11.3892 9.75581C11.3892 10.0374 11.9662 11.3113 12.3742 12.1769C12.5541 12.5586 12.2766 13.0013 11.8546 13.0013H1.72187Z" stroke="#222222" stroke-width="1.2" stroke-linecap="round"/>
  <path d="M8.65315 13.001V13.8734C8.65315 14.8371 7.81613 15.6183 6.78361 15.6183C5.75109 15.6183 4.91406 14.8371 4.91406 13.8734V13.001" stroke="#222222" stroke-width="1.2" stroke-linecap="round"/>
</svg>